<svg id="SvgjsSvg1016" width="100%" height="100%" xmlns="http://www.w3.org/2000/svg" version="1.1" xlink="http://www.w3.org/1999/xlink" xmlns:svgjs="http://svgjs.com/svgjs" viewBox="1.4300000667572021 -82.80999755859375 444.3559875488281 86.04037475585938"><defs id="SvgjsDefs1017"></defs><g id="SvgjsG1018" fill="#000000"><path d="M67.84 -21.91C67.84 -22.06 67.82 -22.21 67.78 -22.35C67.74 -22.5 67.72 -22.76 67.72 -23.13C67.72 -23.64 67.65 -24.04 67.5 -24.34C67.43 -24.41 67.32 -24.74 67.17 -25.33C67.1 -25.62 67.03 -25.88 66.95 -26.1L66.4 -27.75C66.26 -28.19 65.96 -28.89 65.52 -29.84C65.38 -29.99 65.28 -30.1 65.25 -30.17C65.21 -30.25 65.05 -30.47 64.75 -30.83C64.68 -30.91 64.62 -31.04 64.59 -31.22C64.55 -31.4 64.49 -31.57 64.42 -31.72C64.35 -31.94 64.24 -32.16 64.09 -32.38C63.87 -32.45 63.61 -32.6 63.32 -32.82C63.1 -32.96 62.84 -33.2 62.55 -33.53C62.26 -33.86 62 -34.32 61.78 -34.91C61.41 -35.06 61.17 -35.17 61.06 -35.24C60.95 -35.31 60.82 -35.42 60.68 -35.57C60.38 -35.79 59.98 -36.08 59.47 -36.45C59.25 -36.82 58.93 -37.17 58.53 -37.5C58.13 -37.83 57.41 -38.4 56.38 -39.2C56.24 -39.35 56.09 -39.52 55.94 -39.7C55.8 -39.88 55.5 -40.16 55.06 -40.52C54.47 -40.45 54.12 -40.43 54.01 -40.47C53.9 -40.51 53.81 -40.52 53.74 -40.52C53.59 -40.67 53.34 -40.86 52.97 -41.08C52.6 -41.3 51.87 -41.59 50.77 -41.96C50.62 -42.03 50.47 -42.12 50.33 -42.23C50.18 -42.34 49.89 -42.51 49.44 -42.73C49 -42.58 48.69 -42.51 48.51 -42.51C48.33 -42.51 48.12 -42.54 47.9 -42.62C47.68 -42.69 47.43 -42.75 47.13 -42.78C46.84 -42.82 46.36 -42.95 45.7 -43.17C45.33 -43.31 44.98 -43.41 44.65 -43.44C44.32 -43.48 43.76 -43.61 42.95 -43.83L42.12 -43.55C42.01 -43.52 41.88 -43.53 41.74 -43.61C41.59 -43.68 41.37 -43.74 41.08 -43.77C40.78 -43.81 40.3 -43.9 39.64 -44.05C39.5 -44.2 39.24 -44.29 38.87 -44.32C38.51 -44.36 37.92 -44.31 37.11 -44.16C36.89 -44.23 36.65 -44.32 36.4 -44.43C36.14 -44.54 35.75 -44.82 35.24 -45.26C34.73 -45.11 34.39 -45.04 34.25 -45.04C34.1 -45.04 33.84 -45.15 33.48 -45.37C32.89 -45.3 32.38 -45.32 31.94 -45.43C31.49 -45.54 30.69 -45.92 29.51 -46.58C28.85 -46.58 28.37 -46.6 28.08 -46.64C27.79 -46.67 27.49 -46.77 27.2 -46.91C27.05 -46.99 26.85 -47.04 26.59 -47.08C26.34 -47.11 25.92 -47.21 25.33 -47.35C24.89 -47.64 24.45 -47.83 24.01 -47.9C23.86 -48.05 23.62 -48.21 23.29 -48.4C22.96 -48.58 22.61 -48.71 22.24 -48.78C22.1 -48.93 21.88 -49.1 21.58 -49.28C21.29 -49.46 20.81 -49.78 20.15 -50.22C19.64 -50.73 19.16 -51.1 18.72 -51.32C18.57 -51.39 18.37 -51.5 18.12 -51.65C17.86 -51.79 17.36 -52.09 16.63 -52.53C16.04 -52.97 15.47 -53.59 14.92 -54.4C14.37 -55.21 14.13 -56.53 14.21 -58.36L14.21 -58.69C14.21 -58.84 14.28 -59.21 14.43 -59.8C14.57 -60.16 14.63 -60.51 14.59 -60.84C14.55 -61.17 14.61 -61.74 14.76 -62.55L16.3 -64.53C16.59 -64.83 16.85 -65.1 17.07 -65.36C17.29 -65.61 17.51 -65.85 17.73 -66.07C17.95 -66.29 18.24 -66.57 18.61 -66.9C18.98 -67.23 19.64 -67.69 20.59 -68.28L21.14 -68.55C21.36 -68.66 21.77 -68.97 22.35 -69.49C22.5 -69.63 22.7 -69.76 22.96 -69.87C23.22 -69.98 23.75 -70.26 24.56 -70.7C24.78 -70.85 25.02 -70.96 25.27 -71.03C25.53 -71.1 25.77 -71.21 25.99 -71.36C26.36 -71.43 26.63 -71.52 26.81 -71.63C27 -71.74 27.24 -71.87 27.53 -72.02C27.6 -72.09 27.73 -72.13 27.92 -72.13C28.1 -72.13 28.48 -72.2 29.07 -72.35L30.39 -72.79L30.94 -72.79C31.16 -72.79 31.49 -72.86 31.94 -73.01C32.3 -72.86 32.65 -72.85 32.98 -72.96C33.31 -73.07 33.59 -73.19 33.81 -73.34C34.47 -73.27 35.2 -73.27 36.01 -73.34C36.23 -73.19 36.51 -73.16 36.84 -73.23C37.17 -73.3 37.7 -73.34 38.43 -73.34L38.82 -73.34C39 -73.34 39.42 -73.27 40.08 -73.12L40.52 -73.12C40.67 -73.12 40.97 -73.05 41.41 -72.9C41.92 -72.9 42.32 -72.97 42.62 -73.12C43.06 -72.9 43.46 -72.75 43.83 -72.68C44.2 -72.61 44.67 -72.64 45.26 -72.79L46.69 -72.24C46.84 -72.17 47.06 -72.11 47.35 -72.07C47.65 -72.04 48.12 -71.87 48.78 -71.58C49 -71.43 49.28 -71.29 49.61 -71.14C49.94 -70.99 50.4 -70.73 50.99 -70.37C51.13 -70.22 51.3 -70.07 51.48 -69.93C51.66 -69.78 52.01 -69.49 52.53 -69.05C52.6 -68.68 52.86 -68.28 53.3 -67.84C53.45 -67.76 53.61 -67.61 53.79 -67.39C53.98 -67.17 54.36 -66.73 54.95 -66.07C54.95 -65.78 55.13 -65.41 55.5 -64.97C55.5 -64.75 55.52 -64.51 55.56 -64.26C55.59 -64 55.61 -63.8 55.61 -63.65C55.68 -63.58 55.72 -63.49 55.72 -63.38L55.72 -62.44C55.65 -62.22 55.61 -61.96 55.61 -61.67C55.61 -61.38 55.57 -60.97 55.5 -60.46C55.43 -60.31 55.35 -60.13 55.28 -59.91C55.21 -59.69 55.1 -59.28 54.95 -58.69C54.14 -57.89 53.9 -56.95 54.23 -55.89C54.57 -54.82 55.1 -53.89 55.83 -53.08C55.9 -52.93 56.03 -52.8 56.22 -52.69C56.4 -52.58 56.82 -52.34 57.48 -51.98C57.63 -51.9 57.81 -51.85 58.03 -51.81C58.25 -51.78 58.84 -51.83 59.8 -51.98L61.56 -52.31L62.99 -53.19C63.14 -53.41 63.25 -53.67 63.32 -53.96C63.39 -54.4 63.5 -54.73 63.65 -54.95C63.8 -55.24 63.91 -55.5 63.98 -55.72C64.05 -55.94 64.16 -56.24 64.31 -56.6C64.38 -56.97 64.53 -57.81 64.75 -59.14C64.83 -59.43 64.88 -59.7 64.92 -59.96C64.95 -60.22 64.97 -60.53 64.97 -60.9C65.05 -61.19 65.08 -61.7 65.08 -62.44C65.08 -62.73 65.06 -63.01 65.03 -63.26C64.99 -63.52 64.97 -63.72 64.97 -63.87C64.97 -64.24 65.05 -64.64 65.19 -65.08C65.19 -65.38 65.23 -65.65 65.3 -65.91C65.38 -66.16 65.41 -66.48 65.41 -66.84L65.41 -68.06C65.41 -68.5 65.52 -69.05 65.74 -69.71C65.89 -70.07 66.02 -70.46 66.13 -70.86C66.24 -71.27 66.37 -71.69 66.51 -72.13C66.51 -72.28 66.53 -72.41 66.57 -72.52C66.6 -72.63 66.7 -72.94 66.84 -73.45C66.99 -73.82 67.08 -74.17 67.12 -74.5C67.16 -74.83 67.17 -75.14 67.17 -75.43L67.17 -76.09C67.17 -76.39 67.21 -76.86 67.28 -77.53C66.99 -77.67 66.75 -77.86 66.57 -78.08C66.39 -78.3 66.22 -78.52 66.07 -78.74C65.85 -78.96 65.71 -79.18 65.63 -79.4L62.33 -80.5C62.18 -80.43 62 -80.35 61.78 -80.28C61.34 -80.13 61.08 -80.06 61.01 -80.06C60.79 -79.99 60.53 -79.93 60.24 -79.89C59.94 -79.86 59.5 -79.69 58.92 -79.4C58.69 -78.81 58.53 -78.41 58.42 -78.19C58.31 -77.97 58.22 -77.75 58.14 -77.53C58.07 -77.38 57.96 -77.18 57.81 -76.92C57.67 -76.66 57.41 -76.42 57.04 -76.2C56.82 -76.35 56.35 -76.61 55.61 -76.98C55.47 -77.2 55.21 -77.45 54.84 -77.75C54.62 -77.89 54.44 -78.04 54.29 -78.19C54.14 -78.26 53.92 -78.33 53.63 -78.41C53.12 -78.55 52.67 -78.74 52.31 -78.96C52.16 -79.03 51.94 -79.12 51.65 -79.23C51.35 -79.34 50.84 -79.54 50.11 -79.84C49.89 -80.06 49.66 -80.21 49.44 -80.28C49.22 -80.35 49.04 -80.43 48.89 -80.5L48.56 -80.5L48.07 -80.5C47.88 -80.5 47.65 -80.54 47.35 -80.61C46.99 -80.68 46.65 -80.72 46.36 -80.72L45.37 -80.72C45.22 -80.79 45 -80.77 44.71 -80.66C44.42 -80.55 44.09 -80.68 43.72 -81.05C43.28 -80.83 42.87 -80.79 42.51 -80.94C42.29 -81.01 42.14 -81.09 42.07 -81.16L39.75 -81.16C39.61 -81.16 39.42 -81.2 39.2 -81.27C39.06 -81.34 38.91 -81.38 38.76 -81.38C38.62 -81.38 38.47 -81.42 38.32 -81.49C38.1 -81.56 37.79 -81.58 37.39 -81.55C36.98 -81.51 36.12 -81.6 34.8 -81.82C34.58 -81.82 34.36 -81.8 34.14 -81.77C33.92 -81.73 33.55 -81.71 33.04 -81.71C32.74 -81.56 32.52 -81.49 32.38 -81.49C32.23 -81.49 31.94 -81.45 31.49 -81.38C31.2 -81.31 30.85 -81.23 30.45 -81.16C30.04 -81.09 29.37 -80.98 28.41 -80.83L27.81 -80.83C27.55 -80.83 27.27 -80.76 26.98 -80.61C26.54 -80.68 26.1 -80.57 25.66 -80.28C25.36 -80.28 25.11 -80.24 24.89 -80.17C24.67 -80.1 24.48 -80.02 24.34 -79.95C24.12 -79.8 23.68 -79.73 23.02 -79.73C22.65 -79.36 22.37 -79.14 22.19 -79.07C22.01 -78.99 21.77 -78.88 21.47 -78.74C21.18 -78.59 20.81 -78.44 20.37 -78.3C19.93 -78.15 19.23 -77.82 18.28 -77.31C18.06 -77.16 17.84 -77.07 17.62 -77.03C17.4 -76.99 17.18 -76.9 16.96 -76.75L14.98 -75.43L13.77 -74.66L12.33 -74.11C12.04 -73.82 11.82 -73.58 11.67 -73.4C11.53 -73.21 11.34 -72.94 11.12 -72.57C10.9 -72.35 10.68 -72.2 10.46 -72.13C10.24 -71.98 10.06 -71.87 9.91 -71.8C9.62 -71.65 9.36 -71.47 9.14 -71.25C8.63 -70.88 8.37 -70.62 8.37 -70.48C8.22 -70.33 8.09 -70.17 7.98 -69.98C7.87 -69.8 7.75 -69.63 7.6 -69.49C7.38 -69.2 7.12 -68.85 6.83 -68.44C6.53 -68.04 6.13 -67.43 5.62 -66.62L5.4 -66.07C5.32 -65.85 5.25 -65.67 5.18 -65.52C5.1 -65.38 5.07 -65.23 5.07 -65.08C4.85 -64.71 4.85 -64.53 5.07 -64.53C4.99 -64.38 4.96 -64.22 4.96 -64.04C4.96 -63.85 4.88 -63.54 4.74 -63.1C4.66 -62.95 4.55 -62.59 4.4 -62C4.33 -61.7 4.26 -61.45 4.18 -61.23L4.18 -60.57C4.18 -60.13 4.07 -59.69 3.85 -59.25L4.07 -58.81C4.15 -58.66 4.18 -58.51 4.18 -58.36L4.18 -57.81C4.18 -57.59 4.22 -57.37 4.29 -57.15C4.44 -56.71 4.51 -56.27 4.51 -55.83C4.44 -55.69 4.42 -55.48 4.46 -55.23C4.5 -54.97 4.66 -54.47 4.96 -53.74C4.88 -53.59 4.92 -53.34 5.07 -52.97C5.14 -52.75 5.18 -52.56 5.18 -52.42C5.18 -52.2 5.21 -52.01 5.29 -51.87C5.43 -51.5 5.54 -51.32 5.62 -51.32C5.69 -51.17 5.78 -51 5.89 -50.82L6.39 -50C6.75 -49.63 6.99 -49.37 7.1 -49.22C7.21 -49.08 7.3 -48.78 7.38 -48.34C7.97 -48.2 8.46 -48 8.86 -47.74C9.27 -47.48 9.76 -46.95 10.35 -46.14C10.72 -46.07 10.98 -45.99 11.12 -45.92C11.27 -45.85 11.64 -45.63 12.22 -45.26C12.52 -44.89 13.03 -44.56 13.77 -44.27C13.84 -44.12 13.93 -44.01 14.04 -43.94C14.15 -43.87 14.28 -43.76 14.43 -43.61L14.87 -43.17C15.01 -43.02 15.2 -42.91 15.42 -42.84C15.64 -42.69 15.97 -42.54 16.41 -42.4C16.78 -42.1 17.12 -41.9 17.45 -41.79C17.78 -41.68 18.13 -41.55 18.5 -41.41C18.5 -41.33 18.56 -41.26 18.67 -41.19C18.78 -41.11 19.12 -40.93 19.71 -40.63C19.93 -40.49 20.17 -40.36 20.43 -40.25C20.68 -40.14 20.96 -40.01 21.25 -39.86C21.77 -39.5 22.32 -39.31 22.91 -39.31C23.2 -39.17 23.49 -39.08 23.79 -39.04C24.08 -39 24.41 -38.91 24.78 -38.76C24.92 -38.69 25.14 -38.62 25.44 -38.54C25.73 -38.47 26.1 -38.29 26.54 -37.99L27.86 -37.99C28.01 -37.92 28.17 -37.83 28.36 -37.72C28.54 -37.61 28.89 -37.44 29.4 -37.22C29.77 -37.37 30.04 -37.42 30.23 -37.39C30.41 -37.35 30.8 -37.15 31.38 -36.78C31.46 -36.71 31.79 -36.6 32.38 -36.45C32.67 -36.38 32.93 -36.34 33.15 -36.34C33.37 -36.27 33.62 -36.19 33.92 -36.12C34.14 -36.05 34.34 -36.01 34.52 -36.01L34.91 -36.01C35.35 -35.79 36.01 -35.64 36.89 -35.57C37.26 -35.35 37.77 -35.2 38.43 -35.13C38.8 -34.98 39.2 -34.87 39.64 -34.8C40.01 -34.87 40.34 -34.91 40.63 -34.91C41.3 -34.91 41.92 -34.69 42.51 -34.25C42.73 -34.25 42.95 -34.23 43.17 -34.19C43.39 -34.16 43.57 -34.14 43.72 -34.14C43.94 -34.06 44.16 -34.03 44.38 -34.03L45.04 -34.03C45.19 -34.03 45.35 -34.01 45.54 -33.97C45.72 -33.94 45.85 -33.95 45.92 -34.03C46.07 -33.95 46.27 -33.88 46.53 -33.81C46.78 -33.73 47.24 -33.59 47.9 -33.37C48.12 -33.22 48.44 -33.11 48.84 -33.04C49.24 -32.96 49.85 -32.78 50.66 -32.49C50.88 -32.34 51.13 -32.16 51.43 -31.94C51.72 -31.72 52.16 -31.24 52.75 -30.5C53.04 -30.28 53.24 -30.1 53.35 -29.95C53.46 -29.81 53.63 -29.51 53.85 -29.07C54.8 -28.71 55.8 -27.35 56.82 -25C57.04 -24.85 57.28 -24.54 57.54 -24.06C57.79 -23.58 57.89 -22.87 57.81 -21.91L57.81 -21.53C57.81 -21.42 57.74 -21.11 57.59 -20.59C57.52 -20.3 57.56 -19.9 57.7 -19.38C57.7 -19.31 57.67 -19.23 57.59 -19.16C57.45 -18.87 57.3 -18.54 57.15 -18.17L56.66 -17.67C56.48 -17.49 56.31 -17.25 56.16 -16.96C55.72 -16.74 55.39 -16.41 55.17 -15.97C54.95 -15.75 54.73 -15.56 54.51 -15.42C54.29 -15.27 54.11 -15.16 53.96 -15.09C53.81 -14.87 53.63 -14.65 53.41 -14.43C53.26 -14.28 53.06 -14.13 52.8 -13.99C52.55 -13.84 52.35 -13.69 52.2 -13.54C52.12 -13.47 51.61 -13.29 50.66 -12.99C50.22 -12.85 49.74 -12.7 49.22 -12.55C48.93 -12.33 48.64 -12.15 48.34 -12C47.61 -11.71 46.8 -11.56 45.92 -11.56C45.55 -11.27 45.3 -11.1 45.15 -11.07C45 -11.03 44.89 -11.01 44.82 -11.01L44.32 -11.01C44.14 -11.01 43.87 -10.98 43.5 -10.9L43.06 -10.68C42.91 -10.61 42.65 -10.46 42.29 -10.24C41.92 -10.24 41.63 -10.2 41.41 -10.13C41.19 -10.06 41 -9.98 40.86 -9.91L39.53 -9.47C39.46 -9.4 39.06 -9.4 38.32 -9.47L37.17 -9.47C36.69 -9.47 35.94 -9.36 34.91 -9.14C34.76 -9.14 34.56 -9.18 34.3 -9.25C34.05 -9.32 33.84 -9.4 33.7 -9.47C33.4 -9.54 33.18 -9.65 33.04 -9.8L32.27 -9.8C32.05 -9.8 31.83 -9.78 31.6 -9.75C31.38 -9.71 31.2 -9.73 31.05 -9.8C30.91 -9.87 30.74 -9.93 30.56 -9.97C30.38 -10 29.88 -10.09 29.07 -10.24C28.93 -10.31 28.71 -10.39 28.41 -10.46C28.12 -10.53 27.57 -10.65 26.76 -10.79C26.47 -11.01 25.81 -11.23 24.78 -11.45C24.48 -11.67 24.19 -11.82 23.9 -11.89C23.6 -11.97 23.27 -12.04 22.91 -12.11C22.76 -12.26 22.57 -12.37 22.35 -12.44C22.13 -12.52 21.69 -12.74 21.03 -13.1C20.89 -13.1 20.74 -13.16 20.59 -13.27C20.45 -13.38 20.3 -13.51 20.15 -13.66C19.93 -13.8 19.75 -13.95 19.6 -14.1C19.45 -14.24 19.31 -14.35 19.16 -14.43C18.87 -14.57 18.72 -14.68 18.72 -14.76C18.57 -14.83 18.37 -14.96 18.12 -15.14C17.86 -15.33 17.44 -15.71 16.85 -16.3C16.19 -16.66 15.67 -16.98 15.31 -17.23C14.94 -17.49 14.57 -17.95 14.21 -18.61C13.99 -18.61 13.82 -18.63 13.71 -18.67C13.6 -18.7 13.4 -18.87 13.1 -19.16C13.18 -19.38 13.23 -19.58 13.27 -19.77C13.31 -19.95 13.36 -20.15 13.43 -20.37C13.66 -21.03 13.77 -21.84 13.77 -22.8C13.69 -23.02 13.73 -23.42 13.88 -24.01L13.88 -24.61C13.88 -24.87 13.84 -25.29 13.77 -25.88C13.25 -26.69 12.74 -27.33 12.22 -27.81C11.71 -28.28 10.98 -28.78 10.02 -29.29C9.65 -29.15 9.4 -29.05 9.25 -29.02C9.1 -28.98 8.96 -28.96 8.81 -28.96C8.59 -28.96 8.37 -28.98 8.15 -29.02C7.93 -29.05 7.71 -29.07 7.49 -29.07C7.05 -29.07 6.46 -28.93 5.73 -28.63C4.99 -28.34 4.37 -27.38 3.85 -25.77C3.78 -25.55 3.73 -25.33 3.69 -25.11C3.65 -24.89 3.6 -24.48 3.52 -23.9C3.67 -23.75 3.76 -23.51 3.8 -23.18C3.84 -22.85 3.85 -22.5 3.85 -22.13C3.78 -21.77 3.71 -21.36 3.63 -20.92L3.52 -19.16C3.52 -18.79 3.54 -18.45 3.58 -18.12C3.62 -17.78 3.56 -17.44 3.41 -17.07L2.75 -14.54C2.61 -14.02 2.57 -13.58 2.64 -13.21C2.42 -12.85 2.29 -12.5 2.26 -12.17C2.22 -11.84 2.2 -11.53 2.2 -11.23C2.06 -10.94 1.98 -10.68 1.98 -10.46C1.98 -10.24 1.95 -10.02 1.87 -9.8C1.87 -9.58 1.89 -9.38 1.93 -9.2C1.96 -9.01 1.98 -8.81 1.98 -8.59C1.84 -8.08 1.84 -7.6 1.98 -7.16C1.91 -7.01 1.84 -6.79 1.76 -6.5C1.69 -6.2 1.58 -5.65 1.43 -4.85L1.43 -3.96C1.43 -3.6 1.58 -3.12 1.87 -2.53C2.31 -2.17 2.59 -1.89 2.7 -1.71C2.81 -1.52 2.94 -1.25 3.08 -0.88C3.6 -0.73 3.96 -0.62 4.18 -0.55C4.4 -0.48 4.81 -0.29 5.4 0C5.91 0.15 6.44 0.22 6.99 0.22C7.54 0.22 8.22 0.04 9.03 -0.33L9.69 -0.99C9.84 -1.14 9.98 -1.25 10.13 -1.32C10.28 -1.54 10.39 -1.76 10.46 -1.98C10.53 -2.13 10.59 -2.29 10.63 -2.48C10.66 -2.66 10.72 -2.83 10.79 -2.97C10.87 -3.19 10.94 -3.45 11.01 -3.74C11.09 -4.04 11.16 -4.44 11.23 -4.96C11.31 -5.1 11.36 -5.36 11.4 -5.73C11.43 -6.09 11.49 -6.72 11.56 -7.6L11.56 -8.92C12 -8.63 12.59 -8.37 13.32 -8.15C13.4 -7.93 13.69 -7.64 14.21 -7.27C14.57 -6.68 15.16 -6.17 15.97 -5.73C15.97 -5.65 16.15 -5.54 16.52 -5.4C16.67 -5.32 16.85 -5.25 17.07 -5.18C17.14 -5.1 17.25 -5.07 17.4 -5.07C17.55 -4.99 17.69 -4.96 17.84 -4.96C17.99 -4.96 18.21 -4.92 18.5 -4.85C18.94 -4.4 19.42 -4.18 19.93 -4.18L21.14 -3.74C21.36 -3.52 21.64 -3.36 21.97 -3.25L23.13 -2.86C23.2 -2.79 23.33 -2.72 23.51 -2.64C23.69 -2.57 24.19 -2.57 25 -2.64C25.66 -2.42 26.21 -2.31 26.65 -2.31C26.8 -2.31 26.96 -2.29 27.15 -2.26C27.33 -2.22 27.75 -2.13 28.41 -1.98C28.63 -1.84 28.91 -1.69 29.24 -1.54C29.57 -1.39 30.25 -1.21 31.27 -0.99C31.57 -0.92 31.86 -0.86 32.16 -0.83C32.45 -0.79 32.82 -0.77 33.26 -0.77C33.92 -0.55 34.5 -0.51 35.02 -0.66C35.24 -0.66 35.48 -0.68 35.73 -0.72C35.99 -0.75 36.3 -0.77 36.67 -0.77C37.04 -0.62 37.37 -0.53 37.66 -0.5C37.96 -0.46 38.21 -0.44 38.43 -0.44C38.58 -0.44 38.73 -0.46 38.87 -0.5C39.02 -0.53 39.28 -0.59 39.64 -0.66C40.01 -0.37 40.49 -0.29 41.08 -0.44C41.3 -0.44 41.55 -0.51 41.85 -0.66C42.14 -0.81 42.47 -0.92 42.84 -0.99C43.13 -1.14 43.42 -1.21 43.72 -1.21L44.16 -1.21C44.31 -1.36 44.45 -1.47 44.6 -1.54C44.89 -1.69 45.26 -1.73 45.7 -1.65C46.07 -1.95 46.43 -2.13 46.8 -2.2C47.17 -2.28 47.83 -2.39 48.78 -2.53C49.22 -2.53 49.74 -2.72 50.33 -3.08C50.55 -3.08 50.95 -3.16 51.54 -3.3L52.42 -3.52C52.56 -3.52 52.75 -3.56 52.97 -3.63C53.12 -3.71 53.3 -3.76 53.52 -3.8C53.74 -3.84 53.96 -3.93 54.18 -4.07C54.33 -4.22 54.47 -4.31 54.62 -4.35C54.77 -4.39 55.1 -4.48 55.61 -4.63C55.83 -4.99 56.05 -5.25 56.27 -5.4C56.49 -5.54 56.9 -5.69 57.48 -5.84C57.56 -5.91 57.67 -5.95 57.81 -5.95C57.96 -5.95 58.33 -6.02 58.92 -6.17L59.63 -6.88C59.74 -6.99 59.91 -7.19 60.13 -7.49C60.79 -7.71 61.52 -8.15 62.33 -8.81C62.4 -9.03 62.51 -9.21 62.66 -9.36C62.81 -9.51 63.21 -9.87 63.87 -10.46C64.02 -10.46 64.24 -10.61 64.53 -10.9C64.68 -11.05 64.79 -11.2 64.86 -11.34L65.74 -12.55C65.74 -12.77 65.78 -13.03 65.85 -13.32C66 -13.84 66.11 -14.13 66.18 -14.21L66.4 -14.65C66.48 -14.79 66.7 -15.16 67.06 -15.75C67.14 -16.04 67.17 -16.48 67.17 -17.07C67.39 -17.8 67.5 -18.5 67.5 -19.16L67.5 -20.59C67.72 -21.03 67.84 -21.47 67.84 -21.91Z M151.75 -3.85C151.82 -4.59 151.6 -5.58 151.09 -6.83C150.87 -7.19 150.65 -7.49 150.43 -7.71L149.66 -8.48C149.36 -8.63 149.09 -8.74 148.83 -8.81C148.57 -8.88 148.15 -9.07 147.56 -9.36C146.54 -9.51 145.84 -9.47 145.47 -9.25C145.4 -9.25 145.23 -9.23 144.98 -9.2C144.72 -9.16 144.44 -9.14 144.15 -9.14L142.94 -9.14C142.79 -9.07 142.61 -8.99 142.39 -8.92C142.09 -8.85 141.4 -8.81 140.3 -8.81C140.22 -8.96 140.17 -9.09 140.13 -9.2C140.09 -9.31 139.93 -9.65 139.63 -10.24C139.56 -10.39 139.49 -10.57 139.41 -10.79L138.97 -12.11C138.83 -12.11 138.68 -12.19 138.53 -12.33C138.39 -12.48 138.31 -12.88 138.31 -13.54C137.87 -13.91 137.58 -14.22 137.43 -14.48C137.29 -14.74 137.18 -15.01 137.1 -15.31C136.95 -15.67 136.79 -16.08 136.61 -16.52C136.42 -16.96 136.07 -17.58 135.56 -18.39C135.56 -18.76 135.49 -19.16 135.34 -19.6C135.41 -20.04 135.38 -20.48 135.23 -20.92C135.08 -21.36 134.75 -21.99 134.24 -22.8C134.02 -23.09 133.85 -23.36 133.74 -23.62C133.63 -23.88 133.5 -24.15 133.36 -24.45L133.14 -25.55C133.06 -25.92 132.95 -26.39 132.81 -26.98C132.59 -27.27 132.29 -27.71 131.93 -28.3C131.56 -28.89 131.16 -29.48 130.71 -30.06C130.64 -30.21 130.57 -30.34 130.49 -30.45C130.42 -30.56 130.2 -30.8 129.83 -31.16C129.83 -31.31 129.8 -31.53 129.72 -31.83C129.65 -32.12 129.43 -32.56 129.06 -33.15C128.99 -33.66 128.84 -34.1 128.62 -34.47C128.55 -34.84 128.42 -35.24 128.24 -35.68C128.05 -36.12 127.7 -36.67 127.19 -37.33C127.12 -37.4 127.06 -37.55 127.03 -37.77C126.99 -37.99 126.93 -38.47 126.86 -39.2C126.42 -39.79 126.07 -40.34 125.81 -40.86C125.56 -41.37 125.32 -42.03 125.1 -42.84C124.8 -42.98 124.6 -43.13 124.49 -43.28C124.38 -43.42 124.18 -43.87 123.89 -44.6L123.61 -45.15C123.5 -45.37 123.26 -45.88 122.9 -46.69C122.9 -46.77 122.88 -46.88 122.84 -47.02L122.57 -48.12C122.49 -48.27 122.36 -48.47 122.18 -48.73C122 -48.99 121.83 -49.22 121.68 -49.44C121.61 -49.59 121.39 -50.11 121.02 -50.99C120.95 -51.28 120.82 -51.63 120.64 -52.03C120.45 -52.44 120.07 -53.12 119.48 -54.07L118.16 -56.71L117.5 -58.36C117.43 -58.66 117.24 -59.03 116.95 -59.47C116.95 -59.69 116.97 -59.91 117 -60.13C117.04 -60.35 117.02 -60.57 116.95 -60.79C116.8 -61.23 116.64 -61.58 116.45 -61.83C116.27 -62.09 116.03 -62.4 115.74 -62.77C115.59 -62.92 115.46 -63.08 115.35 -63.26C115.24 -63.45 115.15 -63.72 115.08 -64.09C115.08 -64.16 115.06 -64.27 115.02 -64.42C114.99 -64.57 114.97 -64.71 114.97 -64.86L114.97 -65.41L114.75 -65.85C114.67 -66 114.6 -66.13 114.53 -66.24C114.45 -66.35 114.38 -66.48 114.31 -66.62L113.21 -68.61C112.84 -69.05 112.58 -69.47 112.43 -69.87L111.77 -71.69C111.77 -71.84 111.76 -72.02 111.72 -72.24C111.68 -72.46 111.66 -72.83 111.66 -73.34C111.22 -73.78 110.95 -74.13 110.84 -74.39C110.73 -74.64 110.64 -74.99 110.56 -75.43C110.27 -75.8 109.99 -76.26 109.74 -76.81C109.48 -77.36 108.98 -78.37 108.25 -79.84C108.1 -80.06 107.92 -80.32 107.7 -80.61C107.48 -80.9 106.96 -81.34 106.16 -81.93C105.72 -82.22 105.2 -82.37 104.62 -82.37C104.4 -82.44 104.16 -82.46 103.9 -82.43C103.64 -82.39 103.18 -82.3 102.52 -82.15C102.45 -82.15 102.12 -81.93 101.53 -81.49C101.24 -81.27 100.98 -81.09 100.76 -80.94C100.61 -80.79 100.47 -80.61 100.32 -80.39C100.17 -80.24 100.03 -80.06 99.88 -79.84C99.73 -79.62 99.62 -79.4 99.55 -79.18C99.33 -78.96 99.15 -78.63 99 -78.19C98.93 -77.97 98.85 -77.78 98.78 -77.64C98.71 -77.42 98.63 -77.16 98.56 -76.86L98.34 -76.2C98.27 -75.98 98.23 -75.84 98.23 -75.76C98.16 -75.54 98.08 -75.3 98.01 -75.05C97.93 -74.79 97.9 -74.55 97.9 -74.33C97.68 -74.04 97.53 -73.76 97.46 -73.51C97.38 -73.25 97.31 -73.05 97.24 -72.9C97.09 -72.68 97 -72.46 96.96 -72.24C96.93 -72.02 96.76 -71.54 96.47 -70.81C96.32 -70.66 96.19 -70.46 96.08 -70.2C95.97 -69.95 95.81 -69.45 95.59 -68.72C95.73 -68.5 95.79 -68.33 95.75 -68.22C95.71 -68.11 95.59 -67.87 95.37 -67.5C95.07 -67.06 94.89 -66.7 94.81 -66.4C94.67 -66.18 94.59 -65.96 94.59 -65.74C94.59 -65.52 94.56 -65.34 94.48 -65.19L94.48 -64.7C94.48 -64.51 94.45 -64.24 94.37 -63.87C94.3 -63.72 94.21 -63.6 94.1 -63.49L93.38 -62.77C93.38 -62.33 93.36 -62.04 93.33 -61.89C93.29 -61.74 93.27 -61.59 93.27 -61.45C93.2 -61.3 93.14 -61.12 93.11 -60.9C93.07 -60.68 92.98 -60.46 92.83 -60.24C92.69 -59.8 92.56 -59.32 92.45 -58.81C92.34 -58.29 92.25 -57.78 92.17 -57.26L91.4 -56.27L91.4 -55.61C91.4 -55.47 91.33 -55.21 91.18 -54.84C91.11 -54.69 91.02 -54.44 90.91 -54.07C90.8 -53.7 90.56 -53.19 90.19 -52.53C90.19 -52.23 90.21 -52.01 90.24 -51.87C90.28 -51.72 90.23 -51.5 90.08 -51.21C89.93 -51.06 89.8 -50.86 89.69 -50.6C89.58 -50.34 89.42 -49.66 89.2 -48.56C89.13 -48.49 89.03 -48.38 88.92 -48.23C88.81 -48.09 88.54 -47.79 88.1 -47.35C88.1 -47.06 88.08 -46.86 88.04 -46.75C88.01 -46.64 87.8 -46.32 87.44 -45.81C87.58 -45.22 87.62 -44.78 87.55 -44.49C87.33 -44.2 87.2 -43.92 87.16 -43.66C87.12 -43.41 87.07 -43.06 87 -42.62C86.85 -42.47 86.7 -42.27 86.56 -42.01C86.41 -41.75 86.19 -41.44 85.89 -41.08C85.82 -40.49 85.77 -39.97 85.73 -39.53C85.69 -39.09 85.64 -38.65 85.56 -38.21C85.42 -37.85 85.25 -37.4 85.07 -36.89C84.89 -36.38 84.46 -35.61 83.8 -34.58C83.29 -33.77 83.03 -32.89 83.03 -31.94C82.81 -31.49 82.66 -31.04 82.59 -30.56C82.52 -30.08 82.41 -29.55 82.26 -28.96C81.97 -28.59 81.78 -28.15 81.71 -27.64C81.64 -27.13 81.49 -26.43 81.27 -25.55C81.05 -25.03 80.9 -24.59 80.83 -24.23C80.76 -24.08 80.68 -23.9 80.61 -23.68C80.54 -23.46 80.32 -23.13 79.95 -22.69C79.87 -22.32 79.82 -22.06 79.78 -21.91C79.75 -21.77 79.65 -21.51 79.51 -21.14C79.43 -21 79.36 -20.79 79.29 -20.54C79.21 -20.28 79.14 -20.01 79.07 -19.71C78.77 -19.42 78.59 -19.09 78.52 -18.72L78.3 -17.62C78.22 -17.47 78.15 -17.29 78.08 -17.07C78 -16.85 77.82 -16.41 77.53 -15.75C77.38 -15.38 77.29 -15.01 77.25 -14.65C77.21 -14.28 77.2 -13.77 77.2 -13.1C76.98 -12.81 76.83 -12.54 76.75 -12.28C76.68 -12.02 76.61 -11.78 76.53 -11.56L76.53 -10.68C76.53 -10.39 76.5 -9.98 76.42 -9.47L75.76 -8.26C75.69 -7.97 75.64 -7.67 75.6 -7.38C75.56 -7.08 75.47 -6.75 75.32 -6.39C75.25 -6.39 75.18 -6.41 75.1 -6.44C75.03 -6.48 74.7 -6.53 74.11 -6.61C73.89 -6.61 73.49 -6.53 72.9 -6.39C72.61 -6.31 72.2 -6.28 71.69 -6.28C71.4 -6.2 71.1 -6.19 70.81 -6.22C70.51 -6.26 70.15 -6.31 69.71 -6.39C68.97 -6.61 68.33 -6.66 67.78 -6.55C67.23 -6.44 66.66 -6.31 66.07 -6.17C65.85 -6.09 65.6 -5.96 65.3 -5.78C65.01 -5.6 64.46 -5.1 63.65 -4.29C63.28 -3.78 63.1 -3.12 63.1 -2.31L63.1 -0.88C63.39 -0.29 63.67 0.11 63.93 0.33C64.18 0.55 64.49 0.73 64.86 0.88C65.23 1.76 65.91 2.31 66.9 2.53C67.89 2.75 68.79 2.86 69.6 2.86C69.89 2.64 70.4 2.53 71.14 2.53L73.23 2.53L74.44 2.53C74.74 2.68 75.07 2.75 75.43 2.75L76.31 2.75C76.39 2.75 76.66 2.77 77.14 2.81C77.62 2.84 78.15 2.86 78.74 2.86L80.55 2.86L82.04 2.86C82.33 2.86 82.65 2.84 82.98 2.81C83.31 2.77 83.77 2.68 84.35 2.53C84.87 2.61 85.42 2.53 86.01 2.31C86.81 2.46 87.6 2.51 88.37 2.48C89.14 2.44 90.08 2.42 91.18 2.42C91.91 2.13 92.39 1.93 92.61 1.82L93.16 1.54C93.24 1.47 93.38 1.39 93.6 1.32C93.82 1.25 94.37 0.99 95.26 0.55C95.4 0.4 95.57 0.22 95.75 0C95.93 -0.22 96.1 -0.51 96.25 -0.88C96.25 -0.95 96.26 -1.03 96.3 -1.1C96.34 -1.17 96.5 -1.47 96.8 -1.98C97.09 -2.64 97.18 -3.25 97.07 -3.8C96.96 -4.35 96.5 -5.21 95.7 -6.39C95.18 -6.46 94.87 -6.52 94.76 -6.55C94.65 -6.59 94.52 -6.64 94.37 -6.72C94.23 -6.79 94.03 -6.88 93.77 -6.99C93.51 -7.1 93.09 -7.27 92.5 -7.49C92.06 -7.19 91.66 -7.14 91.29 -7.32C90.92 -7.51 90.56 -7.6 90.19 -7.6L89.2 -7.6C88.83 -7.6 88.46 -7.52 88.1 -7.38C87.73 -7.45 87.42 -7.45 87.16 -7.38C86.9 -7.3 86.63 -7.23 86.34 -7.16C86.12 -7.08 85.84 -7.01 85.51 -6.94C85.18 -6.86 84.72 -6.75 84.13 -6.61C84.21 -6.83 84.57 -7.49 85.23 -8.59L85.89 -10.68C85.82 -11.12 85.8 -11.42 85.84 -11.56C85.88 -11.71 85.93 -11.86 86.01 -12L86.34 -13.32C86.63 -13.84 86.85 -14.39 87 -14.98C87 -15.12 87.05 -15.27 87.16 -15.42C87.27 -15.56 87.4 -15.71 87.55 -15.86L87.99 -16.52C87.99 -16.96 88.02 -17.33 88.1 -17.62C88.17 -17.91 88.26 -18.19 88.37 -18.45C88.48 -18.7 88.65 -18.9 88.87 -19.05C88.87 -19.49 88.89 -19.79 88.92 -19.93C88.96 -20.08 89.09 -20.23 89.31 -20.37C89.31 -20.89 89.35 -21.24 89.42 -21.42C89.49 -21.6 89.6 -21.91 89.75 -22.35C89.82 -22.5 89.9 -22.69 89.97 -22.91C90.04 -23.13 90.15 -23.35 90.3 -23.57L90.74 -24.45L91.4 -27.2L93.27 -27.2L95.37 -27.2C95.51 -27.2 95.66 -27.22 95.81 -27.26C95.95 -27.29 96.21 -27.31 96.58 -27.31C96.8 -27.24 97.27 -27.2 98.01 -27.2C98.3 -27.13 98.61 -27.11 98.94 -27.15C99.27 -27.18 99.62 -27.24 99.99 -27.31C100.21 -27.24 100.41 -27.18 100.6 -27.15C100.78 -27.11 100.98 -27.09 101.2 -27.09C101.86 -27.09 102.54 -27.13 103.24 -27.2C103.94 -27.27 104.62 -27.27 105.28 -27.2C105.5 -27.2 105.74 -27.22 105.99 -27.26C106.25 -27.29 106.63 -27.31 107.15 -27.31C107.52 -27.16 107.88 -27.13 108.25 -27.2C108.62 -27.27 109.13 -27.38 109.79 -27.53C110.01 -27.46 110.27 -27.42 110.56 -27.42C110.86 -27.42 111.3 -27.49 111.88 -27.64C112.03 -27.64 112.21 -27.66 112.43 -27.7C112.65 -27.73 112.95 -27.79 113.32 -27.86C113.46 -27.86 113.61 -27.88 113.76 -27.92C113.9 -27.95 114.23 -27.9 114.75 -27.75C114.89 -27.75 115.06 -27.71 115.24 -27.64C115.43 -27.57 115.66 -27.53 115.96 -27.53C116.18 -27.53 116.42 -27.55 116.67 -27.59C116.93 -27.62 117.32 -27.71 117.83 -27.86C117.98 -27.86 118.12 -27.84 118.27 -27.81C118.42 -27.77 118.71 -27.64 119.15 -27.42C119.45 -27.49 119.72 -27.49 119.98 -27.42C120.23 -27.35 120.8 -27.09 121.68 -26.65L122.35 -25.55C122.57 -25.18 122.86 -24.67 123.23 -24.01C123.37 -23.86 123.48 -23.66 123.56 -23.4C123.63 -23.14 123.74 -22.65 123.89 -21.91C124.25 -21.55 124.47 -21.29 124.55 -21.14C124.62 -21 124.73 -20.74 124.88 -20.37C125.02 -19.56 125.25 -18.87 125.54 -18.28C125.54 -18.13 125.56 -18 125.59 -17.89C125.63 -17.78 125.69 -17.47 125.76 -16.96C126.27 -16.3 126.64 -15.75 126.86 -15.31C127.08 -14.65 127.41 -13.77 127.85 -12.66C128 -12.22 128.16 -11.8 128.35 -11.4C128.53 -10.99 128.7 -10.42 128.84 -9.69C128.92 -9.32 128.95 -8.99 128.95 -8.7C128.95 -8.41 128.77 -8.08 128.4 -7.71C128.26 -7.71 128.11 -7.69 127.96 -7.65C127.82 -7.62 127.56 -7.63 127.19 -7.71C126.68 -7.34 126.16 -7.08 125.65 -6.94C125.14 -6.79 124.29 -6.64 123.12 -6.5C122.97 -6.42 122.8 -6.35 122.62 -6.28C122.44 -6.2 122.01 -5.91 121.35 -5.4L120.97 -5.01C120.79 -4.83 120.47 -4.48 120.03 -3.96L120.36 -0.44C120.88 -0.07 121.26 0.24 121.52 0.5L123.01 1.98C123.67 2.2 124.22 2.31 124.66 2.31C125.1 2.31 125.54 2.28 125.98 2.2C126.13 2.2 126.33 2.22 126.58 2.26C126.84 2.29 127.41 2.17 128.29 1.87C129.03 1.43 129.54 1.21 129.83 1.21C129.98 1.21 130.13 1.19 130.27 1.16C130.42 1.12 130.68 1.03 131.04 0.88C131.19 0.95 131.39 0.99 131.65 0.99C131.91 0.99 132.37 0.92 133.03 0.77C133.39 0.92 133.74 0.97 134.07 0.94C134.4 0.9 134.68 0.84 134.9 0.77C135.49 0.92 135.96 0.88 136.33 0.66C137.06 0.81 137.51 0.88 137.65 0.88L140.07 0.88C140.07 0.95 140.19 0.95 140.41 0.88C140.55 0.88 140.75 0.84 141.01 0.77C141.27 0.7 141.69 0.59 142.28 0.44C142.42 0.37 142.62 0.33 142.88 0.33L143.6 0.33C144.04 0.4 144.55 0.37 145.14 0.22C146.09 0.59 146.9 0.55 147.56 0.11C148 0.18 148.43 0.13 148.83 -0.06C149.23 -0.24 149.62 -0.44 149.99 -0.66L151.09 -1.54C151.23 -1.84 151.34 -2.13 151.42 -2.42C151.49 -2.64 151.55 -2.9 151.58 -3.19C151.62 -3.49 151.67 -3.71 151.75 -3.85ZM117.5 -37.55C117.21 -37.55 116.89 -37.51 116.56 -37.44C116.23 -37.37 115.85 -37.29 115.41 -37.22C115.04 -37.15 114.75 -37.11 114.53 -37.11C114.31 -37.11 114.01 -37.04 113.65 -36.89C113.21 -37.04 112.8 -37.11 112.43 -37.11C112.14 -37.11 111.83 -37.07 111.5 -37C111.17 -36.93 110.86 -36.89 110.56 -36.89L110.07 -36.89C109.88 -36.89 109.72 -36.93 109.57 -37L108.91 -37.22C108.76 -37.15 108.58 -37.11 108.36 -37.11L107.26 -37.11C106.96 -37.04 106.65 -36.98 106.32 -36.95C105.99 -36.91 105.57 -36.82 105.06 -36.67C104.76 -36.74 104.45 -36.76 104.12 -36.73C103.79 -36.69 103.26 -36.63 102.52 -36.56C102.16 -36.56 101.86 -36.6 101.64 -36.67L100.98 -36.89C100.76 -36.82 100.5 -36.74 100.21 -36.67C99.99 -36.6 99.73 -36.56 99.44 -36.56C99.15 -36.56 98.93 -36.63 98.78 -36.78C98.34 -36.63 97.99 -36.54 97.73 -36.51C97.48 -36.47 97.2 -36.49 96.91 -36.56C96.54 -36.63 96.17 -36.69 95.81 -36.73C95.44 -36.76 94.96 -36.71 94.37 -36.56C94.67 -37.51 94.85 -38.4 94.92 -39.2C94.92 -39.35 94.96 -39.5 95.04 -39.64C95.11 -39.79 95.26 -40.16 95.48 -40.75C95.48 -40.82 95.51 -40.93 95.59 -41.08C95.66 -41.22 95.88 -41.59 96.25 -42.18C96.32 -42.32 96.41 -42.49 96.52 -42.67C96.63 -42.86 96.8 -43.39 97.02 -44.27C97.09 -44.42 97.16 -44.6 97.24 -44.82C97.31 -45.04 97.38 -45.33 97.46 -45.7C97.53 -45.77 97.59 -45.88 97.62 -46.03C97.66 -46.18 97.82 -46.54 98.12 -47.13C98.49 -47.57 98.78 -48.07 99 -48.62C99.22 -49.17 99.44 -49.89 99.66 -50.77C99.66 -50.84 99.68 -50.97 99.72 -51.15C99.75 -51.34 99.92 -51.72 100.21 -52.31C100.36 -52.67 100.47 -53.06 100.54 -53.46C100.61 -53.87 100.69 -54.25 100.76 -54.62C100.91 -54.99 101.02 -55.39 101.09 -55.83C101.17 -56.27 101.39 -56.9 101.75 -57.7C101.97 -58.07 102.17 -58.51 102.36 -59.03C102.54 -59.54 102.82 -60.42 103.18 -61.67C103.18 -61.81 103.33 -62.18 103.62 -62.77L104.07 -63.65C103.99 -63.87 103.99 -64.09 104.07 -64.31C104.21 -64.83 104.47 -65.12 104.84 -65.19C104.91 -65.05 105 -64.84 105.11 -64.59C105.22 -64.33 105.42 -63.87 105.72 -63.21C105.79 -63.06 105.86 -62.86 105.94 -62.6C106.01 -62.35 106.23 -61.89 106.6 -61.23L106.82 -60.79C106.89 -60.64 107 -60.27 107.15 -59.69C107.44 -59.17 107.62 -58.82 107.7 -58.64C107.77 -58.46 107.95 -57.96 108.25 -57.15C108.18 -56.49 108.32 -55.85 108.69 -55.23C109.06 -54.6 109.42 -54.11 109.79 -53.74C109.86 -53.45 109.96 -53.13 110.07 -52.8C110.18 -52.47 110.42 -52.12 110.78 -51.76C110.93 -51.32 111.15 -50.77 111.44 -50.11C111.74 -49.44 112.07 -48.89 112.43 -48.45L112.65 -47.79C112.73 -47.57 112.95 -47.21 113.32 -46.69C113.32 -46.62 113.35 -46.53 113.43 -46.42C113.5 -46.31 113.68 -45.99 113.98 -45.48C113.98 -44.89 114.03 -44.42 114.14 -44.05C114.25 -43.68 114.38 -43.39 114.53 -43.17L114.75 -42.73C114.82 -42.58 114.93 -42.21 115.08 -41.63L115.96 -40.41C116.03 -40.12 116.16 -39.77 116.34 -39.37C116.53 -38.96 116.91 -38.36 117.5 -37.55Z M223.33 -4.96L223.11 -6.17C223.11 -6.53 223.03 -6.92 222.89 -7.32C222.74 -7.73 222.48 -8.22 222.12 -8.81C221.75 -8.96 221.49 -9.05 221.34 -9.09C221.2 -9.12 220.94 -9.21 220.57 -9.36C220.35 -9.73 220 -9.97 219.53 -10.08C219.05 -10.19 218.41 -10.31 217.6 -10.46C217.16 -10.53 216.32 -10.42 215.07 -10.13C214.99 -10.13 214.88 -10.09 214.74 -10.02C214.59 -9.95 214.39 -9.89 214.13 -9.86C213.87 -9.82 213.56 -9.73 213.2 -9.58C213.12 -9.51 212.96 -9.45 212.7 -9.42L210.77 -9.14C210.41 -9.21 210.02 -9.25 209.62 -9.25C209.21 -9.25 208.61 -9.18 207.8 -9.03L206.26 -11.34C206.11 -11.49 205.96 -11.65 205.82 -11.84C205.67 -12.02 205.34 -12.41 204.83 -12.99C204.68 -13.14 204.5 -13.34 204.28 -13.6C204.06 -13.86 203.76 -14.32 203.39 -14.98C203.25 -15.2 203.12 -15.42 203.01 -15.64L202.62 -16.41C202.48 -16.7 202.26 -17.33 201.96 -18.28C201.82 -18.43 201.69 -18.59 201.58 -18.78C201.47 -18.96 201.34 -19.23 201.19 -19.6C200.83 -19.82 200.57 -19.99 200.42 -20.1C200.27 -20.21 200.13 -20.45 199.98 -20.81C200.05 -21.18 199.96 -21.57 199.71 -21.97C199.45 -22.37 199.14 -22.98 198.77 -23.79C198.62 -24.08 198.55 -24.48 198.55 -25C198.48 -25.29 198.44 -25.55 198.44 -25.77C198.29 -26.06 198.11 -26.36 197.89 -26.65L197.45 -27.31C197.3 -27.53 197.19 -27.68 197.12 -27.75C196.97 -27.9 196.88 -28.06 196.84 -28.25C196.81 -28.43 196.72 -28.85 196.57 -29.51L195.58 -30.28C195.58 -30.43 195.47 -30.83 195.25 -31.49C195.1 -31.64 194.97 -31.75 194.86 -31.83C194.75 -31.9 194.59 -32.16 194.36 -32.6C194.29 -32.89 194.18 -33.13 194.03 -33.31C193.89 -33.5 193.74 -33.7 193.59 -33.92C193.52 -33.92 193.41 -34.17 193.26 -34.69C193.19 -34.91 193.08 -35.17 192.93 -35.46C192.86 -35.46 192.79 -35.53 192.71 -35.68C192.57 -35.83 192.31 -36.27 191.94 -37C191.72 -37.44 191.35 -37.88 190.84 -38.32C190.84 -38.4 190.8 -38.47 190.73 -38.54C190.66 -38.62 190.44 -38.95 190.07 -39.53C189.92 -39.75 189.76 -40.01 189.57 -40.3C189.39 -40.6 189.01 -41.08 188.42 -41.74C188.2 -42.03 188.01 -42.25 187.87 -42.4C187.72 -42.54 187.54 -42.76 187.32 -43.06C187.32 -43.13 187.28 -43.2 187.21 -43.28C187.06 -43.42 186.99 -43.61 186.99 -43.83C186.84 -44.05 186.73 -44.31 186.66 -44.6L186.33 -44.93L185.89 -45.37C185.74 -45.52 185.56 -45.74 185.33 -46.03C185.19 -46.54 184.97 -46.99 184.67 -47.35C184.38 -47.72 184.05 -48.09 183.68 -48.45C183.9 -48.6 184.11 -48.77 184.29 -48.95C184.47 -49.13 184.82 -49.41 185.33 -49.78C185.41 -50.14 185.46 -50.4 185.5 -50.55C185.54 -50.69 185.7 -50.95 186 -51.32C186.44 -51.54 186.77 -51.78 186.99 -52.03C187.21 -52.29 187.43 -52.6 187.65 -52.97C187.79 -53.12 187.9 -53.26 187.98 -53.41C188.05 -53.56 188.2 -53.74 188.42 -53.96C188.86 -54.91 189.41 -55.8 190.07 -56.6C190.14 -56.6 190.27 -56.66 190.46 -56.77C190.64 -56.88 190.84 -57.01 191.06 -57.15C191.35 -57.3 191.61 -57.48 191.83 -57.7C191.83 -57.78 191.91 -57.92 192.05 -58.14C192.2 -58.36 192.53 -58.73 193.04 -59.25C193.34 -59.47 193.67 -59.78 194.03 -60.18C194.4 -60.59 194.84 -61.19 195.36 -62C195.5 -62.15 195.65 -62.27 195.8 -62.38C195.94 -62.49 196.31 -62.84 196.9 -63.43C197.26 -63.58 197.56 -63.8 197.78 -64.09C198 -64.38 198.29 -64.79 198.66 -65.3L198.93 -65.58C199.05 -65.69 199.32 -65.93 199.76 -66.29C199.98 -66.51 200.53 -67.21 201.41 -68.39C201.49 -68.46 201.58 -68.53 201.69 -68.61C201.8 -68.68 202.11 -68.83 202.62 -69.05L204.39 -71.14C204.46 -71.21 204.48 -71.25 204.44 -71.25C204.4 -71.25 204.4 -71.27 204.44 -71.3C204.48 -71.34 204.61 -71.41 204.83 -71.52L206.04 -72.13L207.03 -72.13C207.32 -72.13 207.65 -72.2 208.02 -72.35C208.17 -72.28 208.35 -72.24 208.57 -72.24C208.72 -72.24 208.88 -72.22 209.07 -72.18C209.25 -72.15 209.45 -72.13 209.67 -72.13C210.11 -72.06 210.63 -72.02 211.21 -72.02L212.31 -72.02C212.83 -72.02 213.31 -71.95 213.75 -71.8C214.48 -71.8 214.99 -71.87 215.29 -72.02C215.51 -72.09 215.78 -72.2 216.11 -72.35C216.44 -72.5 216.98 -72.79 217.71 -73.23C217.78 -73.23 217.89 -73.29 218.04 -73.4C218.19 -73.51 218.44 -73.86 218.81 -74.44C218.96 -74.74 219.14 -75.25 219.36 -75.98L218.81 -78.3C218.74 -78.44 218.67 -78.68 218.59 -79.01C218.52 -79.34 218.3 -79.69 217.93 -80.06C217.78 -80.21 217.62 -80.33 217.44 -80.44C217.25 -80.55 216.91 -80.87 216.39 -81.38C216.02 -81.31 215.75 -81.29 215.56 -81.32C215.38 -81.36 215.07 -81.45 214.63 -81.6L210.99 -81.6L210.11 -81.6C209.82 -81.6 209.45 -81.56 209.01 -81.49C208.94 -81.49 208.42 -81.6 207.47 -81.82C207.18 -81.82 206.74 -81.75 206.15 -81.6C205.71 -81.6 205.21 -81.58 204.66 -81.55C204.11 -81.51 203.39 -81.56 202.51 -81.71C202.29 -81.71 202.09 -81.73 201.91 -81.77C201.73 -81.8 201.38 -81.93 200.86 -82.15C199.91 -81.86 198.59 -81.79 196.9 -81.93C196.68 -82 196.44 -82.04 196.18 -82.04C195.93 -82.04 195.5 -81.97 194.92 -81.82C194.7 -81.89 194.46 -81.91 194.2 -81.88L193.04 -81.71C192.53 -81.86 192.09 -81.89 191.72 -81.82C191.36 -81.75 190.99 -81.64 190.62 -81.49L190.4 -81.49L189.9 -81.49C189.72 -81.49 189.45 -81.45 189.08 -81.38C189.01 -81.31 188.68 -81.27 188.09 -81.27C187.79 -81.27 187.5 -81.23 187.21 -81.16C187.21 -81.01 187.13 -80.87 186.99 -80.72L186.55 -80.28C186.4 -80.13 186.18 -79.99 185.89 -79.84C185.74 -79.69 185.57 -79.56 185.39 -79.45C185.21 -79.34 184.93 -79.1 184.56 -78.74C184.42 -78 184.38 -77.38 184.45 -76.86C184.53 -76.35 184.82 -75.54 185.33 -74.44C185.41 -74.37 185.5 -74.3 185.61 -74.22C185.72 -74.15 186.07 -73.82 186.66 -73.23C187.02 -72.86 187.43 -72.64 187.87 -72.57C188.46 -72.42 189.06 -72.33 189.68 -72.29C190.31 -72.26 190.95 -72.09 191.61 -71.8C191.47 -71.65 191.32 -71.52 191.17 -71.41C191.03 -71.3 190.77 -71.07 190.4 -70.7C189.96 -70.26 189.63 -69.89 189.41 -69.6C188.97 -69.16 188.68 -68.83 188.53 -68.61C188.46 -68.53 188.34 -68.44 188.2 -68.33C188.05 -68.22 187.91 -68.09 187.76 -67.95L187.21 -67.39L186.33 -66.18L185.45 -65.19C185.08 -64.9 184.75 -64.53 184.45 -64.09C184.31 -63.94 184.12 -63.82 183.9 -63.71C183.68 -63.6 183.39 -63.43 183.02 -63.21C182.8 -62.77 182.58 -62.37 182.36 -62C182.14 -61.63 181.59 -60.9 180.71 -59.8C180.05 -59.28 179.31 -58.47 178.51 -57.37C178.36 -57.01 178.21 -56.69 178.07 -56.44C177.92 -56.18 177.74 -55.94 177.52 -55.72C177.08 -55.43 176.71 -55.12 176.42 -54.79C176.12 -54.46 175.9 -54.11 175.75 -53.74C175.17 -53.37 174.69 -53.01 174.32 -52.64C174.03 -52.42 173.72 -52.16 173.39 -51.87C173.06 -51.57 172.6 -51.21 172.01 -50.77C171.86 -50.4 171.68 -50.09 171.46 -49.83C171.24 -49.57 170.73 -49.15 169.92 -48.56C169.77 -48.12 169.57 -47.76 169.31 -47.46C169.06 -47.17 168.63 -46.84 168.05 -46.47C167.75 -46.32 167.51 -46.14 167.33 -45.92C167.15 -45.7 166.94 -45.3 166.72 -44.71C166.65 -44.56 166.54 -44.43 166.39 -44.32C166.25 -44.21 165.81 -43.98 165.07 -43.61L164.52 -42.78C164.45 -42.67 164.23 -42.43 163.86 -42.07C163.71 -41.85 163.51 -41.61 163.26 -41.35C163 -41.09 162.54 -40.67 161.88 -40.08L161.88 -43.06C161.88 -43.2 161.9 -43.37 161.93 -43.55C161.97 -43.74 161.95 -44.08 161.88 -44.6C161.81 -44.67 161.81 -44.78 161.88 -44.93C161.88 -45.08 161.92 -45.26 161.99 -45.48L162.32 -46.47C162.1 -46.76 161.92 -47.11 161.77 -47.52C161.62 -47.92 161.48 -48.78 161.33 -50.11L161.33 -50.44C161.33 -50.58 161.35 -50.71 161.38 -50.82C161.42 -50.93 161.48 -51.13 161.55 -51.43L161.55 -52.64C161.55 -53.08 161.48 -53.48 161.33 -53.85C161.47 -54.58 161.57 -55.45 161.6 -56.44C161.64 -57.43 161.62 -58.44 161.55 -59.47C161.7 -60.05 161.77 -60.66 161.77 -61.28C161.77 -61.91 161.73 -62.51 161.66 -63.1L161.44 -64.86C161.37 -65.45 161.25 -66.11 161.11 -66.84C161.25 -67.43 161.31 -68.33 161.27 -69.54C161.24 -70.75 161.18 -71.84 161.11 -72.79C161.25 -72.72 161.51 -72.68 161.88 -72.68C162.25 -72.68 162.83 -72.75 163.64 -72.9C163.79 -72.9 164.06 -72.92 164.47 -72.96C164.87 -72.99 165.26 -72.94 165.62 -72.79C166.21 -73.16 166.63 -73.36 166.89 -73.4C167.15 -73.43 167.46 -73.41 167.83 -73.34C168.27 -73.27 168.72 -73.21 169.2 -73.18C169.68 -73.14 170.32 -73.16 171.13 -73.23L172.34 -73.23C172.71 -73.3 173.07 -73.49 173.44 -73.78L174.65 -73.78L175.42 -75.54C175.57 -75.76 175.7 -76.02 175.81 -76.31C175.92 -76.61 175.97 -77.09 175.97 -77.75C175.97 -77.89 175.96 -78.13 175.92 -78.46C175.88 -78.79 175.79 -79.14 175.64 -79.51C175.35 -80.17 175 -80.68 174.6 -81.05C174.19 -81.42 173.77 -81.71 173.33 -81.93C172.96 -82.08 172.56 -82.21 172.12 -82.32C171.68 -82.43 171.28 -82.55 170.91 -82.7C170.54 -82.77 170.01 -82.81 169.31 -82.81C168.61 -82.81 167.53 -82.77 166.06 -82.7C165.77 -82.7 165.31 -82.63 164.69 -82.48C164.06 -82.33 163.57 -82.19 163.2 -82.04L161.77 -82.04C161.55 -82.04 161.31 -82.02 161.05 -81.99C160.8 -81.95 160.15 -81.93 159.13 -81.93C159.05 -81.93 158.81 -81.95 158.41 -81.99C158.01 -82.02 157.51 -82.11 156.92 -82.26C156.26 -82.33 155.57 -82.44 154.83 -82.59L151.64 -82.59L150.32 -82.37C149.8 -82.37 149.4 -82.33 149.1 -82.26C148.74 -82.48 148.3 -82.52 147.78 -82.37L146.79 -82.37C146.5 -82.37 146.06 -82.44 145.47 -82.59C144.96 -82.22 144.57 -82 144.31 -81.93C144.06 -81.86 143.64 -81.75 143.05 -81.6L141.18 -79.07C141.32 -78.33 141.45 -77.71 141.56 -77.2C141.67 -76.68 141.8 -75.91 141.95 -74.88C142.24 -74.88 142.44 -74.83 142.55 -74.72C142.66 -74.61 142.9 -74.3 143.27 -73.78L143.93 -73.45C144.08 -73.38 144.37 -73.2 144.81 -72.9C145.4 -72.9 145.8 -72.88 146.02 -72.85C146.24 -72.81 146.46 -72.79 146.68 -72.79C147.05 -72.79 147.43 -72.81 147.84 -72.85C148.24 -72.88 148.88 -73.05 149.77 -73.34C149.99 -73.27 150.21 -73.23 150.43 -73.23C150.65 -73.23 150.94 -73.19 151.31 -73.12C151.38 -72.46 151.45 -71.84 151.53 -71.25C151.6 -70.66 151.64 -70.04 151.64 -69.38C151.56 -69.16 151.51 -68.9 151.47 -68.61C151.44 -68.31 151.49 -67.87 151.64 -67.28C151.71 -66.99 151.78 -66.68 151.86 -66.35C151.93 -66.02 151.93 -65.56 151.86 -64.97C151.86 -64.9 151.88 -64.77 151.91 -64.59C151.95 -64.4 152.04 -63.98 152.19 -63.32C152.19 -62.95 152.15 -62.59 152.08 -62.22C152 -61.85 151.97 -61.45 151.97 -61.01C152.04 -60.71 152.1 -60.46 152.13 -60.24C152.17 -60.02 152.19 -59.76 152.19 -59.47C152.34 -59.1 152.26 -58.55 151.97 -57.81C151.97 -57.3 152.04 -56.86 152.19 -56.49C152.11 -56.13 152.06 -55.78 152.02 -55.45C151.99 -55.12 151.93 -54.77 151.86 -54.4C151.78 -54.11 151.73 -53.78 151.69 -53.41C151.66 -53.04 151.67 -52.64 151.75 -52.2C151.45 -51.61 151.38 -50.88 151.53 -50C151.45 -49.7 151.44 -49.41 151.47 -49.11C151.51 -48.82 151.64 -48.38 151.86 -47.79C151.86 -47.65 151.88 -47.46 151.91 -47.24C151.95 -47.02 152.04 -46.62 152.19 -46.03C152.11 -45.88 152.08 -45.72 152.08 -45.54C152.08 -45.35 152.04 -45.11 151.97 -44.82C151.97 -44.38 152.11 -43.94 152.41 -43.5C152.48 -43.35 152.52 -43.21 152.52 -43.06C152.52 -42.91 152.45 -42.54 152.3 -41.96L152.3 -39.86C152.3 -39.28 152.34 -38.62 152.41 -37.88C152.19 -37.29 152.11 -36.69 152.19 -36.06C152.26 -35.44 152.37 -34.8 152.52 -34.14C152.59 -33.99 152.63 -33.51 152.63 -32.71L152.63 -32.05C152.63 -31.75 152.59 -31.38 152.52 -30.94L152.52 -29.18C152.45 -29.04 152.41 -28.83 152.41 -28.58C152.41 -28.32 152.45 -27.86 152.52 -27.2C152.45 -26.83 152.43 -26.47 152.46 -26.1C152.5 -25.73 152.59 -25.14 152.74 -24.34C152.59 -24.19 152.52 -23.97 152.52 -23.68L152.52 -23.13C152.59 -22.98 152.63 -22.83 152.63 -22.69C152.63 -22.32 152.67 -22.06 152.74 -21.91C152.74 -21.77 152.76 -21.58 152.79 -21.36C152.83 -21.14 152.92 -20.63 153.07 -19.82C153.07 -19.68 153.05 -19.49 153.01 -19.27C152.98 -19.05 152.92 -18.57 152.85 -17.84L152.85 -15.75C152.85 -15.6 152.87 -15.44 152.9 -15.25C152.94 -15.07 153.03 -14.76 153.18 -14.32L153.18 -14.1C153.18 -14.02 153.22 -13.69 153.29 -13.1L153.29 -12.61C153.29 -12.35 153.36 -11.82 153.51 -11.01C153.36 -10.42 153.31 -9.86 153.34 -9.31C153.38 -8.75 153.47 -8.26 153.62 -7.82C153.55 -7.67 153.45 -7.54 153.34 -7.43C153.23 -7.32 152.89 -7.16 152.3 -6.94C152.08 -6.94 151.8 -6.9 151.47 -6.83C151.14 -6.75 150.83 -6.64 150.54 -6.5C150.17 -6.35 149.82 -6.22 149.49 -6.11C149.16 -6 148.7 -5.98 148.11 -6.06C147.75 -5.76 147.45 -5.58 147.23 -5.51C147.01 -5.43 146.65 -5.32 146.13 -5.18C145.54 -4.59 145.21 -4.02 145.14 -3.47C145.07 -2.92 145.07 -2.24 145.14 -1.43C145.21 -1.28 145.25 -1.16 145.25 -1.05C145.25 -0.94 145.21 -0.66 145.14 -0.22L147.45 2.64C148.26 2.94 149.01 3.12 149.71 3.19C150.41 3.27 151.34 3.23 152.52 3.08C152.89 2.72 153.16 2.5 153.34 2.42C153.53 2.35 153.8 2.35 154.17 2.42C154.68 2.28 155.09 2.06 155.38 1.76C155.75 1.76 156.04 1.74 156.26 1.71C156.48 1.67 156.7 1.62 156.92 1.54C157.22 1.47 157.55 1.39 157.91 1.32C158.28 1.25 158.8 1.14 159.46 0.99C159.53 0.92 159.86 0.88 160.45 0.88C160.74 0.88 161 0.92 161.22 0.99L162.1 0.77C162.32 0.7 162.52 0.66 162.7 0.66C162.89 0.66 163.02 0.62 163.09 0.55C163.31 0.55 163.82 0.66 164.63 0.88C165 0.66 165.26 0.51 165.4 0.44C165.55 0.37 165.81 0.29 166.17 0.22C166.32 0.22 166.5 0.18 166.72 0.11C166.94 0.04 167.39 -0.18 168.05 -0.55L169.26 -0.55C169.62 -0.84 169.95 -1.06 170.25 -1.21C170.54 -1.36 171.02 -1.65 171.68 -2.09C171.97 -2.24 172.29 -2.44 172.62 -2.7C172.95 -2.95 173.41 -3.45 173.99 -4.18C173.92 -4.63 173.88 -4.92 173.88 -5.07L173.88 -5.51C173.88 -5.58 173.85 -5.76 173.77 -6.06C173.7 -6.35 173.63 -6.68 173.55 -7.05C173.41 -7.41 173.29 -7.82 173.22 -8.26L172.56 -8.59C172.34 -8.74 172.1 -8.86 171.85 -8.97C171.59 -9.09 171.35 -9.29 171.13 -9.58C170.32 -9.8 169.18 -9.86 167.72 -9.75C166.25 -9.64 164.89 -9.4 163.64 -9.03C163.57 -9.18 163.51 -9.32 163.48 -9.47C163.44 -9.62 163.42 -9.87 163.42 -10.24C163.42 -10.46 163.4 -10.7 163.37 -10.96C163.33 -11.21 163.27 -11.56 163.2 -12L163.2 -12.55C163.2 -12.77 163.16 -13.07 163.09 -13.43L162.76 -15.53C162.76 -15.67 162.78 -15.88 162.82 -16.13C162.85 -16.39 162.87 -16.78 162.87 -17.29C162.72 -17.44 162.63 -17.56 162.59 -17.67C162.56 -17.78 162.5 -18.1 162.43 -18.61L162.43 -19.49C162.43 -19.79 162.47 -20.01 162.54 -20.15C162.69 -20.59 162.72 -21 162.65 -21.36C162.65 -21.51 162.63 -21.66 162.59 -21.8C162.56 -21.95 162.54 -22.24 162.54 -22.69C162.69 -23.05 162.8 -23.64 162.87 -24.45C162.87 -24.81 162.8 -25.22 162.65 -25.66C162.58 -25.81 162.56 -25.93 162.59 -26.04C162.63 -26.15 162.72 -26.5 162.87 -27.09L163.53 -27.75C163.75 -27.97 164.15 -28.3 164.74 -28.74C164.82 -29.04 164.87 -29.24 164.91 -29.35C164.94 -29.46 165.07 -29.7 165.29 -30.06C165.59 -30.21 165.84 -30.54 166.06 -31.05L167.16 -32.05C167.46 -32.27 167.77 -32.56 168.1 -32.93C168.43 -33.29 168.89 -33.88 169.48 -34.69C169.77 -34.84 170.03 -35.02 170.25 -35.24L170.8 -35.79C170.87 -35.94 171.17 -36.27 171.68 -36.78L172.34 -37.22C172.56 -37.37 172.74 -37.51 172.89 -37.66L173.66 -38.76C173.74 -38.76 173.81 -38.8 173.88 -38.87L174.21 -39.2C174.36 -39.35 174.54 -39.5 174.76 -39.64L175.86 -40.52L177.19 -42.07C177.26 -41.99 177.31 -41.92 177.35 -41.85C177.39 -41.77 177.48 -41.44 177.63 -40.86C178.07 -40.41 178.34 -40.12 178.45 -39.97C178.56 -39.83 178.8 -39.5 179.17 -38.98C179.31 -38.84 179.46 -38.62 179.61 -38.32C179.76 -38.03 179.98 -37.48 180.27 -36.67L180.99 -35.95C181.1 -35.84 181.22 -35.61 181.37 -35.24C181.74 -34.87 182.07 -34.47 182.36 -34.03L183.24 -32.71C183.54 -32.19 183.87 -31.68 184.23 -31.16C184.53 -30.94 184.78 -30.69 185 -30.39L185.45 -29.73C185.59 -29.51 185.7 -29.37 185.78 -29.29C185.92 -29.07 186.01 -28.87 186.05 -28.69C186.09 -28.5 186.18 -28.3 186.33 -28.08C186.47 -27.93 186.58 -27.75 186.66 -27.53C186.73 -27.31 186.84 -27.13 186.99 -26.98C187.13 -26.61 187.26 -26.32 187.37 -26.1C187.48 -25.88 187.54 -25.58 187.54 -25.22C187.9 -24.92 188.2 -24.58 188.42 -24.17C188.64 -23.77 189.04 -22.98 189.63 -21.8C189.63 -21.44 189.7 -21.07 189.85 -20.7C190 -20.34 190.14 -20.04 190.29 -19.82C190.44 -19.23 190.66 -18.59 190.95 -17.89C191.24 -17.2 191.76 -16.33 192.49 -15.31L192.71 -14.65C192.79 -14.43 192.86 -14.13 192.93 -13.77L193.59 -13.1L194.03 -12.66C194.33 -12.22 194.59 -11.86 194.81 -11.56C194.81 -11.42 194.82 -11.27 194.86 -11.12C194.9 -10.98 194.92 -10.72 194.92 -10.35C195.36 -9.91 195.67 -9.58 195.85 -9.36C196.04 -9.14 196.2 -8.92 196.35 -8.7C196.49 -8.55 196.62 -8.39 196.73 -8.2C196.84 -8.02 196.86 -7.75 196.79 -7.38C196.57 -7.45 196.31 -7.51 196.02 -7.54C195.72 -7.58 195.25 -7.6 194.59 -7.6C194.44 -7.45 194.33 -7.38 194.25 -7.38C194.18 -7.38 193.89 -7.34 193.37 -7.27C192.79 -7.27 192.38 -7.23 192.16 -7.16C191.8 -7.16 191.39 -7.08 190.95 -6.94C190.58 -6.79 190.16 -6.5 189.68 -6.06C189.21 -5.62 188.79 -5.21 188.42 -4.85C188.34 -4.11 188.33 -3.56 188.36 -3.19C188.4 -2.83 188.49 -2.5 188.64 -2.2C188.64 -2.06 188.68 -1.89 188.75 -1.71C188.82 -1.52 188.89 -1.32 188.97 -1.1C189.04 -0.81 189.12 -0.55 189.19 -0.33L189.85 0.11C190.29 0.4 190.55 0.55 190.62 0.55L191.94 1.43C192.75 1.65 193.56 1.69 194.36 1.54L195.08 1.54C195.34 1.54 195.94 1.5 196.9 1.43L197.5 1.43C197.76 1.43 198.15 1.39 198.66 1.32C198.81 1.32 198.99 1.28 199.21 1.21C199.43 1.14 199.76 1.06 200.2 0.99C200.35 0.99 200.55 0.95 200.81 0.88C201.06 0.81 201.71 0.7 202.73 0.55L203.45 0.55C203.71 0.55 203.95 0.51 204.17 0.44C204.39 0.59 204.64 0.7 204.94 0.77C205.23 0.84 205.67 0.84 206.26 0.77C206.63 0.77 207.01 0.7 207.41 0.55C207.82 0.4 208.42 0.22 209.23 0L210.33 0C210.77 0 211.51 -0.07 212.54 -0.22C212.61 -0.15 212.94 -0.11 213.53 -0.11C213.82 -0.11 214.11 -0.07 214.41 0C214.48 -0.07 214.63 -0.15 214.85 -0.22C214.99 -0.29 215.19 -0.37 215.45 -0.44C215.71 -0.51 216.02 -0.55 216.39 -0.55L216.94 -0.55C217.16 -0.55 217.53 -0.59 218.04 -0.66C218.48 -0.73 218.81 -0.81 219.03 -0.88C219.25 -0.95 219.51 -1.06 219.8 -1.21C219.88 -1.28 219.99 -1.36 220.13 -1.43C220.28 -1.5 220.72 -1.76 221.45 -2.2C221.68 -2.35 221.9 -2.51 222.12 -2.7C222.34 -2.88 222.52 -3.16 222.67 -3.52C222.81 -3.67 222.92 -3.85 223 -4.07C223.07 -4.29 223.18 -4.59 223.33 -4.96Z M297.77 -71.91C297.7 -72.28 297.48 -72.68 297.11 -73.12L296.67 -74C296.52 -74.3 296.41 -74.55 296.34 -74.77C296.19 -74.77 296.04 -74.85 295.9 -74.99L294.91 -75.98L294.08 -76.15C293.9 -76.19 293.73 -76.24 293.58 -76.31C293.36 -76.46 293.13 -76.55 292.87 -76.59C292.61 -76.63 292.19 -76.68 291.6 -76.75C291.53 -76.68 291.4 -76.64 291.22 -76.64L289.95 -76.64C289.88 -76.64 289.79 -76.63 289.68 -76.59C289.57 -76.55 289.44 -76.53 289.29 -76.53L288.63 -76.53L288.19 -76.53C288.04 -76.53 287.88 -76.52 287.69 -76.48C287.51 -76.44 287.34 -76.42 287.2 -76.42C286.98 -76.35 286.72 -76.3 286.43 -76.26L285.11 -76.09C284.74 -76.09 284.43 -76.06 284.17 -75.98C283.91 -75.91 283.49 -75.8 282.9 -75.65C282.39 -75.65 281.99 -75.62 281.69 -75.54C281.18 -75.32 280.74 -75.18 280.37 -75.1C280.22 -75.03 279.98 -74.97 279.65 -74.94C279.32 -74.9 278.75 -74.88 277.95 -74.88C277.73 -74.74 277.54 -74.63 277.4 -74.55C277.25 -74.48 276.99 -74.41 276.63 -74.33C276.26 -74.41 275.74 -74.37 275.08 -74.22C274.94 -74.15 274.79 -74.13 274.64 -74.17C274.5 -74.2 274.35 -74.22 274.2 -74.22L273.76 -74.22L272 -74L271.34 -74C270.9 -74 270.68 -73.86 270.68 -73.56C270.31 -73.49 269.91 -73.45 269.47 -73.45C269.03 -73.45 268.48 -73.3 267.82 -73.01C267.6 -72.94 267.19 -72.9 266.6 -72.9C266.46 -72.83 266.31 -72.77 266.16 -72.74C266.02 -72.7 265.87 -72.61 265.72 -72.46C265.5 -72.31 265.32 -72.17 265.17 -72.02C264.95 -71.95 264.73 -71.84 264.51 -71.69C264 -71.47 263.59 -71.14 263.3 -70.7C262.64 -70.48 262.2 -70.07 261.98 -69.49C261.69 -68.97 261.58 -68.2 261.65 -67.17C261.65 -66.73 261.8 -66.22 262.09 -65.63C262.75 -64.46 263.72 -63.8 265.01 -63.65C266.29 -63.5 267.45 -63.54 268.48 -63.76L270.13 -63.76C270.57 -63.98 270.97 -64.05 271.34 -63.98C272.15 -63.98 272.66 -64.05 272.88 -64.2C273.03 -64.2 273.21 -64.16 273.43 -64.09C273.65 -64.02 273.98 -63.8 274.42 -63.43C274.42 -63.36 274.46 -63.21 274.53 -62.99C274.61 -62.77 274.72 -62.48 274.86 -62.11C274.94 -61.96 274.99 -61.78 275.03 -61.56C275.07 -61.34 275.16 -60.93 275.3 -60.35C275.16 -59.76 275.27 -59.06 275.63 -58.25C275.86 -58.11 276.04 -57.81 276.19 -57.37C276.33 -56.93 276.41 -56.53 276.41 -56.16C276.48 -56.02 276.59 -55.57 276.74 -54.84C276.81 -54.55 276.88 -54.22 276.96 -53.85C277.1 -53.78 277.25 -53.63 277.4 -53.41C277.54 -53.26 277.69 -53.04 277.84 -52.75C277.98 -52.45 278.17 -52.01 278.39 -51.43C278.31 -50.91 278.39 -50.33 278.61 -49.66C278.68 -49.59 278.75 -49.5 278.83 -49.39C278.9 -49.28 279.01 -49 279.16 -48.56C279.01 -48.12 278.99 -47.7 279.1 -47.3C279.21 -46.89 279.34 -46.54 279.49 -46.25L279.49 -45.59C279.49 -45.37 279.56 -45.08 279.71 -44.71C279.71 -44.49 279.69 -44.27 279.65 -44.05C279.62 -43.83 279.6 -43.64 279.6 -43.5C279.6 -43.13 279.65 -42.8 279.76 -42.51C279.87 -42.21 280 -41.77 280.15 -41.19C280.3 -40.82 280.37 -40.32 280.37 -39.7C280.37 -39.07 280.44 -37.92 280.59 -36.23C280.66 -35.94 280.68 -35.7 280.65 -35.51C280.61 -35.33 280.59 -35.13 280.59 -34.91C280.59 -34.69 280.57 -34.43 280.54 -34.14C280.5 -33.84 280.48 -33.51 280.48 -33.15C280.55 -33 280.61 -32.82 280.65 -32.6C280.68 -32.38 280.7 -32.08 280.7 -31.72C280.7 -31.57 280.68 -31.38 280.65 -31.16C280.61 -30.94 280.55 -30.5 280.48 -29.84L280.48 -29.51C280.48 -29.37 280.44 -29.07 280.37 -28.63L279.93 -25.77C279.86 -25.7 279.78 -25.6 279.71 -25.49C279.64 -25.38 279.49 -25.03 279.27 -24.45C279.12 -24.08 278.99 -23.75 278.88 -23.46C278.77 -23.16 278.61 -22.61 278.39 -21.8C278.24 -21.58 278.09 -21.31 277.95 -20.98C277.8 -20.65 277.54 -20.12 277.18 -19.38L276.35 -18.28C276.02 -17.84 275.78 -17.47 275.63 -17.18C275.27 -16.81 275.08 -16.37 275.08 -15.86C275.01 -15.78 274.92 -15.67 274.81 -15.53C274.7 -15.38 274.46 -15.12 274.09 -14.76C273.8 -14.61 273.54 -14.41 273.32 -14.15C273.1 -13.89 272.77 -13.47 272.33 -12.88C272.18 -12.74 272.02 -12.63 271.84 -12.55C271.65 -12.48 271.38 -12.3 271.01 -12C270.86 -11.86 270.72 -11.76 270.57 -11.73C270.42 -11.69 270.13 -11.64 269.69 -11.56C269.47 -11.27 269.28 -11.07 269.14 -10.96C268.99 -10.85 268.62 -10.65 268.04 -10.35C267.96 -10.28 267.85 -10.2 267.71 -10.13C267.56 -10.06 267.3 -9.84 266.94 -9.47C266.64 -9.32 266.33 -9.2 266 -9.09C265.67 -8.97 265.32 -8.85 264.95 -8.7C264.59 -8.55 264.26 -8.44 263.96 -8.37C263.67 -8.3 263.3 -8.3 262.86 -8.37C262.42 -7.93 262.05 -7.67 261.76 -7.6C261.54 -7.45 261.28 -7.36 260.99 -7.32C260.69 -7.29 260.14 -7.23 259.34 -7.16C258.97 -7.08 258.49 -6.9 257.91 -6.61C257.68 -6.53 257.48 -6.48 257.3 -6.44C257.12 -6.41 256.84 -6.39 256.47 -6.39C256.33 -6.39 256.14 -6.41 255.92 -6.44C255.7 -6.48 255.45 -6.46 255.15 -6.39L252.18 -5.84L251.41 -5.84C251.11 -5.84 250.75 -5.8 250.31 -5.73C249.79 -5.87 249.35 -5.84 248.99 -5.62L248.1 -5.84C247.81 -5.91 247.48 -6.02 247.11 -6.17C246.53 -6.31 245.98 -6.41 245.46 -6.44C244.95 -6.48 244.4 -6.57 243.81 -6.72C242.93 -6.79 241.94 -7.08 240.84 -7.6C240.54 -7.89 240.1 -8.19 239.51 -8.48C239.29 -8.63 239 -8.81 238.63 -9.03C238.27 -9.25 237.68 -9.65 236.87 -10.24C236.8 -10.39 236.69 -10.52 236.54 -10.63C236.39 -10.74 236.03 -10.98 235.44 -11.34C235.29 -11.71 235.11 -12.02 234.89 -12.28C234.67 -12.54 234.38 -12.85 234.01 -13.21C234.01 -13.36 233.94 -13.58 233.79 -13.88C233.64 -14.17 233.27 -14.72 232.69 -15.53C232.54 -16.04 232.14 -16.67 231.48 -17.4C231.4 -17.77 231.29 -18.12 231.15 -18.45C231 -18.78 230.82 -19.12 230.59 -19.49C230.37 -19.71 230.23 -20.01 230.15 -20.37C230.08 -20.59 230.01 -20.85 229.93 -21.14C229.86 -21.29 229.79 -21.51 229.71 -21.8C229.57 -22.24 229.49 -22.61 229.49 -22.91C229.57 -23.49 229.48 -24.13 229.22 -24.83C228.96 -25.53 228.72 -26.25 228.5 -26.98C228.5 -27.64 228.39 -28.3 228.17 -28.96C228.25 -29.33 228.17 -30.06 227.95 -31.16C227.95 -31.53 227.97 -31.92 228.01 -32.32C228.04 -32.72 228.06 -33.4 228.06 -34.36C228.06 -34.58 228.04 -34.8 228.01 -35.02C227.97 -35.24 227.92 -35.53 227.84 -35.9C227.92 -36.05 227.97 -36.23 228.01 -36.45C228.04 -36.67 228.03 -37.07 227.95 -37.66L227.95 -38.05C227.95 -38.23 227.92 -38.62 227.84 -39.2C227.84 -39.42 227.86 -39.64 227.9 -39.86C227.93 -40.08 227.95 -40.3 227.95 -40.52C227.95 -40.67 227.93 -40.86 227.9 -41.08C227.86 -41.3 227.88 -41.74 227.95 -42.4C228.03 -42.54 228.1 -42.8 228.17 -43.17C228.25 -43.53 228.39 -44.16 228.61 -45.04L228.61 -46.03L228.61 -46.8C228.61 -47.02 228.65 -47.24 228.72 -47.46C228.87 -47.9 228.94 -48.2 228.94 -48.34C228.87 -48.42 228.85 -48.56 228.89 -48.78C228.92 -49 229.09 -49.52 229.38 -50.33C229.38 -50.47 229.4 -50.67 229.44 -50.93C229.48 -51.19 229.6 -51.61 229.82 -52.2C229.9 -52.42 229.97 -52.66 230.04 -52.91C230.12 -53.17 230.19 -53.48 230.26 -53.85C230.41 -54.22 230.52 -54.57 230.59 -54.9C230.67 -55.23 230.78 -55.57 230.93 -55.94C231.15 -56.6 231.26 -57.3 231.26 -58.03C231.48 -58.4 231.62 -58.77 231.7 -59.14C231.77 -59.5 231.95 -60.05 232.25 -60.79C232.25 -61.3 232.28 -61.69 232.36 -61.94C232.43 -62.2 232.61 -62.7 232.91 -63.43C232.91 -63.5 232.93 -63.61 232.96 -63.76C233 -63.91 233.05 -64.27 233.13 -64.86C233.27 -65.16 233.4 -65.43 233.51 -65.69C233.62 -65.94 233.75 -66.33 233.9 -66.84C234.05 -66.99 234.16 -67.14 234.23 -67.28C234.3 -67.43 234.49 -67.69 234.78 -68.06C234.78 -68.42 234.8 -68.73 234.83 -68.99C234.87 -69.25 234.96 -69.71 235.11 -70.37C235.33 -70.51 235.53 -70.66 235.72 -70.81C235.9 -70.95 236.21 -71.1 236.65 -71.25C237.39 -71.1 237.94 -71.03 238.3 -71.03L239.07 -71.03C239.37 -71.03 239.88 -70.96 240.62 -70.81L242.27 -70.59C242.41 -70.66 242.6 -70.7 242.82 -70.7C243.26 -70.7 243.63 -70.73 243.92 -70.81C244.29 -70.81 244.78 -70.83 245.41 -70.86C246.03 -70.9 246.82 -71.07 247.77 -71.36C247.92 -71.65 248.07 -71.85 248.21 -71.96C248.36 -72.07 248.65 -72.28 249.1 -72.57C249.39 -72.79 249.7 -73.1 250.03 -73.51C250.36 -73.91 250.53 -74.44 250.53 -75.1C250.6 -75.4 250.45 -76.02 250.09 -76.98C250.01 -77.05 249.94 -77.2 249.87 -77.42C249.79 -77.64 249.68 -78.08 249.54 -78.74C249.02 -78.88 248.69 -79.03 248.54 -79.18C248.4 -79.32 248.14 -79.65 247.77 -80.17L246.73 -80.17C246.62 -80.17 246.49 -80.21 246.34 -80.28C246.2 -80.35 245.99 -80.44 245.74 -80.55C245.48 -80.66 245.13 -80.79 244.69 -80.94C244.4 -80.79 244.01 -80.72 243.53 -80.72C243.06 -80.72 242.41 -80.83 241.61 -81.05C241.24 -81.2 240.84 -81.29 240.4 -81.32C239.96 -81.36 239.29 -81.31 238.41 -81.16C238.27 -81.23 238.1 -81.29 237.92 -81.32C237.73 -81.36 237.46 -81.45 237.09 -81.6C236.5 -81.38 235.79 -81.23 234.94 -81.16C234.1 -81.09 233.02 -81.2 231.7 -81.49C231.4 -81.49 231.16 -81.47 230.98 -81.44C230.8 -81.4 230.56 -81.34 230.26 -81.27C229.9 -81.42 229.59 -81.49 229.33 -81.49C229.07 -81.49 228.8 -81.45 228.5 -81.38C228.28 -81.31 227.88 -81.31 227.29 -81.38C226.78 -81.45 226.3 -81.47 225.86 -81.44C225.42 -81.4 225.02 -81.34 224.65 -81.27C224.28 -81.2 223.9 -81.14 223.49 -81.1C223.09 -81.07 222.56 -81.09 221.9 -81.16C221.75 -81.16 221.58 -81.18 221.4 -81.21C221.22 -81.25 220.98 -81.23 220.68 -81.16C220.32 -81.09 220 -80.98 219.75 -80.83C219.49 -80.68 219.18 -80.54 218.81 -80.39C218.74 -80.32 218.44 -80.21 217.93 -80.06C217.71 -79.99 217.49 -79.87 217.27 -79.73L216.83 -78.85C216.68 -78.63 216.55 -78.41 216.44 -78.19L216.17 -77.64C215.66 -77.05 215.42 -76.41 215.45 -75.71C215.49 -75.01 215.69 -74.33 216.06 -73.67C216.21 -73.52 216.43 -73.34 216.72 -73.12C217.01 -72.9 217.34 -72.72 217.71 -72.57C218.08 -72.35 218.48 -72.13 218.92 -71.91C219.36 -71.91 219.8 -71.87 220.24 -71.8L222.56 -71.47C222.85 -71.47 223.18 -71.43 223.55 -71.36C223.91 -71.29 224.24 -71.03 224.54 -70.59C224.39 -70.29 224.26 -69.98 224.15 -69.65C224.04 -69.32 223.99 -68.94 223.99 -68.5C223.69 -68.06 223.51 -67.6 223.44 -67.12C223.36 -66.64 223.29 -66.15 223.22 -65.63C223.14 -65.12 223.07 -64.73 223 -64.48C222.92 -64.22 222.7 -63.91 222.34 -63.54C222.48 -63.17 222.52 -62.9 222.45 -62.71C222.37 -62.53 222.26 -62.18 222.12 -61.67C221.97 -61.52 221.79 -60.82 221.57 -59.58C221.49 -59.21 221.4 -58.84 221.29 -58.47C221.18 -58.11 221.12 -57.63 221.12 -57.04C220.98 -56.68 220.83 -56.27 220.68 -55.83C220.68 -55.68 220.65 -55.52 220.57 -55.34C220.5 -55.15 220.35 -54.69 220.13 -53.96C220.06 -53.81 219.99 -53.65 219.91 -53.46C219.84 -53.28 219.73 -52.9 219.58 -52.31C219.44 -51.87 219.36 -51.39 219.36 -50.88C219.14 -50.44 218.96 -49.85 218.81 -49.11C218.67 -48.38 218.59 -47.43 218.59 -46.25C218.52 -46.03 218.41 -45.63 218.26 -45.04C217.97 -44.38 217.89 -43.64 218.04 -42.84L218.04 -41.41C218.04 -41.04 218.02 -40.73 217.99 -40.47C217.95 -40.21 217.89 -39.86 217.82 -39.42L217.82 -39.04C217.82 -38.93 217.78 -38.58 217.71 -37.99C217.71 -37.85 217.69 -37.66 217.66 -37.44C217.62 -37.22 217.6 -37 217.6 -36.78L217.6 -36.01L217.6 -35.46L217.6 -34.85C217.6 -34.6 217.64 -34.32 217.71 -34.03C217.71 -33.88 217.73 -33.73 217.77 -33.59C217.8 -33.44 217.82 -33.11 217.82 -32.6C217.97 -32.23 218.04 -31.9 218.04 -31.6L218.04 -30.83L218.04 -28.63C218.04 -27.68 218.3 -26.58 218.81 -25.33C218.96 -24.89 219.09 -24.43 219.2 -23.95C219.31 -23.47 219.47 -22.65 219.69 -21.47C219.77 -21.33 219.84 -21.11 219.91 -20.81C219.99 -20.52 220.13 -20.01 220.35 -19.27C220.43 -19.12 220.43 -18.72 220.35 -18.06C220.5 -17.91 220.63 -17.75 220.74 -17.56C220.85 -17.38 220.94 -17.22 221.01 -17.07L221.23 -16.41L221.9 -15.2C221.9 -15.05 221.91 -14.88 221.95 -14.7C221.99 -14.52 222.19 -14.17 222.56 -13.66C222.56 -13.58 222.59 -13.49 222.67 -13.38C222.74 -13.27 222.96 -12.92 223.33 -12.33C223.47 -11.89 223.69 -11.43 223.99 -10.96C224.28 -10.48 224.57 -10.02 224.87 -9.58C225.31 -8.99 225.75 -8.46 226.19 -7.98C226.63 -7.51 226.96 -7.12 227.18 -6.83C227.25 -6.53 227.47 -6.17 227.84 -5.73C228.06 -5.51 228.47 -5.18 229.05 -4.74C229.27 -4.59 229.53 -4.4 229.82 -4.18L230.71 -3.52C231.07 -3.23 231.38 -2.99 231.64 -2.81C231.9 -2.62 232.1 -2.46 232.25 -2.31C232.47 -2.09 232.65 -1.95 232.8 -1.87C233.02 -1.73 233.27 -1.58 233.57 -1.43C233.79 -1.28 233.99 -1.16 234.17 -1.05C234.36 -0.94 234.52 -0.81 234.67 -0.66L238.63 1.32C238.78 1.32 239.07 1.38 239.51 1.49L240.84 1.82C241.28 1.93 241.7 2.06 242.1 2.2C242.51 2.35 242.74 2.46 242.82 2.53C243.41 2.39 243.81 2.33 244.03 2.37C244.25 2.4 244.65 2.5 245.24 2.64C245.39 2.72 245.61 2.75 245.9 2.75C246.2 2.75 246.64 2.79 247.22 2.86C247.37 2.86 247.55 2.88 247.77 2.92C247.99 2.95 248.21 2.97 248.43 2.97L249.98 2.97C252.03 3.05 254.01 2.9 255.92 2.53C256.29 2.53 256.69 2.46 257.13 2.31C257.21 2.39 257.32 2.42 257.46 2.42C257.61 2.42 257.98 2.35 258.57 2.2L259.34 2.2L260 2.2C260 2.13 260.07 2.06 260.22 1.98C260.29 1.91 260.55 1.8 260.99 1.65C261.36 1.65 261.98 1.47 262.86 1.1C263.23 1.03 263.7 0.92 264.29 0.77C264.59 0.62 264.88 0.51 265.17 0.44C265.47 0.37 265.8 0.26 266.16 0.11C266.38 0.04 266.64 -0.02 266.94 -0.06C267.23 -0.09 267.6 -0.29 268.04 -0.66C268.26 -0.73 268.73 -0.95 269.47 -1.32C269.61 -1.39 269.8 -1.47 270.02 -1.54C270.24 -1.62 270.61 -1.76 271.12 -1.98L272.33 -2.31C272.48 -2.46 272.62 -2.57 272.77 -2.64C272.92 -2.72 273.05 -2.77 273.16 -2.81C273.27 -2.84 273.36 -2.9 273.43 -2.97C273.65 -3.12 273.89 -3.25 274.15 -3.36C274.4 -3.47 274.61 -3.6 274.75 -3.74C275.12 -3.89 275.43 -4.02 275.69 -4.13C275.95 -4.24 276.33 -4.37 276.85 -4.51C277.07 -4.88 277.23 -5.14 277.34 -5.29C277.45 -5.43 277.69 -5.69 278.06 -6.06C278.5 -6.28 278.87 -6.57 279.16 -6.94L280.48 -7.82C280.85 -8.11 281.25 -8.37 281.69 -8.59C281.84 -8.88 282.02 -9.18 282.24 -9.47C282.39 -9.76 282.61 -10.08 282.9 -10.41C283.2 -10.74 283.6 -11.09 284.11 -11.45C284.11 -11.67 284.13 -11.87 284.17 -12.06C284.21 -12.24 284.33 -12.55 284.55 -12.99C285 -13.21 285.36 -13.58 285.66 -14.1C285.88 -14.39 286.13 -14.83 286.43 -15.42C286.57 -15.56 286.7 -15.73 286.81 -15.91C286.92 -16.1 287.09 -16.33 287.31 -16.63C287.53 -17.14 287.71 -17.66 287.86 -18.17C288.01 -18.68 288.34 -19.45 288.85 -20.48C288.92 -20.63 288.96 -20.81 288.96 -21.03C288.96 -21.25 289.03 -21.66 289.18 -22.24C289.69 -22.91 290.02 -23.97 290.17 -25.44C290.32 -26.03 290.43 -26.5 290.5 -26.87C290.57 -27.24 290.57 -27.71 290.5 -28.3L290.5 -28.52C290.5 -28.59 290.61 -28.96 290.83 -29.62C290.91 -30.14 290.92 -30.6 290.89 -31C290.85 -31.4 290.79 -31.79 290.72 -32.16C290.72 -32.38 290.7 -32.61 290.67 -32.87C290.63 -33.13 290.61 -33.4 290.61 -33.7C290.61 -33.77 290.63 -33.88 290.67 -34.03L290.94 -35.13C290.94 -35.72 290.83 -36.3 290.61 -36.89C290.83 -37.48 290.87 -37.99 290.72 -38.43C290.65 -38.51 290.61 -38.58 290.61 -38.65L290.61 -39.2L290.61 -39.97L290.28 -42.84L289.95 -44.16C290.17 -44.97 290.13 -45.7 289.84 -46.36C289.99 -46.95 289.99 -47.52 289.84 -48.07C289.69 -48.62 289.55 -49.08 289.4 -49.44C289.33 -49.81 289.03 -50.62 288.52 -51.87L288.52 -52.47C288.52 -52.73 288.48 -53.01 288.41 -53.3C288.41 -54.11 288.26 -54.84 287.97 -55.5C287.9 -55.57 287.84 -55.76 287.8 -56.05C287.77 -56.35 287.67 -56.68 287.53 -57.04C287.38 -57.41 287.27 -57.81 287.2 -58.25C287.12 -58.33 287.01 -58.51 286.87 -58.81C286.72 -58.95 286.61 -59.17 286.54 -59.47C286.46 -59.76 286.35 -60.09 286.21 -60.46C286.21 -60.6 286.17 -60.88 286.1 -61.28C286.02 -61.69 285.8 -62.4 285.44 -63.43C285.14 -64.02 284.89 -64.46 284.66 -64.75C284.81 -64.75 284.81 -65.16 284.66 -65.96C285.03 -65.96 285.45 -66.02 285.93 -66.13C286.41 -66.24 287.27 -66.29 288.52 -66.29C288.59 -66.37 288.68 -66.4 288.79 -66.4L289.84 -66.4C290.28 -66.4 290.91 -66.55 291.71 -66.84L293.25 -66.84C293.62 -66.99 293.92 -67.12 294.14 -67.23C294.36 -67.34 294.54 -67.47 294.69 -67.61C294.76 -67.69 294.85 -67.8 294.96 -67.95C295.07 -68.09 295.42 -68.35 296.01 -68.72L296.56 -69.27C296.7 -69.41 296.81 -69.56 296.89 -69.71L297.55 -70.7C297.7 -70.99 297.77 -71.4 297.77 -71.91Z M368.8 -3.52C368.5 -4.11 368.23 -4.59 367.97 -4.96C367.71 -5.32 367.51 -5.65 367.37 -5.95C367.07 -6.17 366.52 -6.79 365.71 -7.82C365.49 -7.67 365.29 -7.62 365.11 -7.65C364.93 -7.69 364.54 -7.82 363.95 -8.04C363.59 -8.11 363 -8.15 362.19 -8.15C361.38 -8.15 360.58 -8.04 359.77 -7.82C359.62 -7.82 359.42 -7.86 359.16 -7.93C358.91 -8 358.52 -8.3 358.01 -8.81L358.01 -9.14C358.01 -9.29 358.04 -9.62 358.12 -10.13C358.48 -10.65 358.59 -11.31 358.45 -12.11L358.56 -13.77L358.34 -15.42C358.26 -15.42 358.19 -15.53 358.12 -15.75C358.04 -15.89 357.97 -16.08 357.9 -16.3C357.82 -16.52 357.82 -16.81 357.9 -17.18C357.9 -17.62 357.6 -18.32 357.01 -19.27C356.94 -19.42 356.87 -19.62 356.79 -19.88C356.72 -20.13 356.46 -20.78 356.02 -21.8C356.02 -22.17 355.91 -22.69 355.69 -23.35C355.47 -23.42 355.29 -23.86 355.14 -24.67L353.82 -25.88C353.67 -26.03 353.56 -26.19 353.49 -26.37C353.42 -26.56 353.2 -26.94 352.83 -27.53C352.68 -27.68 352.52 -27.88 352.33 -28.14C352.15 -28.39 351.73 -28.89 351.07 -29.62C350.92 -29.84 350.7 -30.1 350.41 -30.39C350.11 -30.69 349.67 -31.16 349.09 -31.83C349.38 -32.12 349.89 -32.41 350.63 -32.71C350.92 -32.85 351.25 -33 351.62 -33.15L353.6 -34.91C353.67 -34.98 353.8 -35.09 353.99 -35.24C354.17 -35.39 354.34 -35.53 354.48 -35.68C354.7 -35.9 354.89 -36.12 355.03 -36.34C355.11 -36.49 355.22 -36.67 355.36 -36.89C355.51 -37.04 355.62 -37.2 355.69 -37.39C355.77 -37.57 355.88 -37.74 356.02 -37.88C356.24 -38.18 356.48 -38.51 356.74 -38.87C357 -39.24 357.35 -39.9 357.79 -40.86L358.06 -41.41C358.17 -41.63 358.41 -42.07 358.78 -42.73C358.92 -42.8 359.05 -42.89 359.16 -43C359.27 -43.11 359.51 -43.28 359.88 -43.5C359.88 -43.79 359.9 -44.05 359.93 -44.27C359.97 -44.49 360.17 -44.78 360.54 -45.15C360.54 -45.59 360.56 -45.9 360.59 -46.09C360.63 -46.27 360.72 -46.65 360.87 -47.24L361.09 -47.68C361.16 -47.83 361.35 -48.16 361.64 -48.67C361.93 -49.04 362.08 -49.52 362.08 -50.11C362.23 -50.11 362.3 -50.29 362.3 -50.66L362.3 -51.21L362.52 -51.65C362.67 -51.94 362.74 -52.27 362.74 -52.64L362.96 -55.72L362.96 -56.27C362.96 -56.49 362.92 -56.82 362.85 -57.26C362.85 -57.41 362.87 -57.61 362.91 -57.87C362.94 -58.13 363.07 -58.55 363.29 -59.14C363.29 -59.5 363.27 -59.8 363.24 -60.02C363.2 -60.24 363.22 -60.64 363.29 -61.23C363 -61.59 362.8 -61.89 362.69 -62.11C362.58 -62.33 362.45 -62.66 362.3 -63.1C362.3 -63.47 362.25 -63.78 362.14 -64.04C362.03 -64.29 361.9 -64.53 361.75 -64.75C361.75 -64.9 361.73 -65.04 361.69 -65.19C361.66 -65.34 361.57 -65.74 361.42 -66.4C361.42 -66.55 361.36 -66.77 361.25 -67.06C361.14 -67.36 360.83 -67.91 360.32 -68.72C359.88 -69.01 359.51 -69.3 359.22 -69.6C359.07 -69.74 358.96 -69.91 358.89 -70.09C358.81 -70.28 358.74 -70.59 358.67 -71.03L356.35 -72.68C356.13 -72.97 355.84 -73.19 355.47 -73.34C355.11 -73.49 354.59 -73.74 353.93 -74.11C353.71 -74.26 353.49 -74.42 353.27 -74.61C353.05 -74.79 352.65 -75.07 352.06 -75.43C351.62 -76.09 350.85 -76.68 349.75 -77.2C349.67 -77.2 349.58 -77.23 349.47 -77.31C349.36 -77.38 348.94 -77.49 348.21 -77.64C348.13 -77.64 348.06 -77.67 347.98 -77.75L347.65 -78.08C347.43 -78.22 347.25 -78.37 347.1 -78.52L346.44 -78.74C346.3 -78.81 346.11 -78.85 345.89 -78.85C345.67 -78.85 345.53 -78.88 345.45 -78.96C345.31 -79.03 345.14 -79.09 344.96 -79.12L344.13 -79.29C343.69 -79.65 343.18 -80 342.59 -80.33C342 -80.66 341.3 -80.76 340.5 -80.61C340.13 -80.75 339.74 -80.85 339.34 -80.88C338.94 -80.92 338.37 -81.01 337.63 -81.16C337.49 -81.23 337.25 -81.31 336.92 -81.38C336.59 -81.45 335.91 -81.64 334.88 -81.93C334.15 -82.15 333.41 -82.15 332.68 -81.93C332.46 -81.93 332.26 -81.95 332.07 -81.99C331.89 -82.02 331.69 -82.08 331.47 -82.15C331.17 -82.15 330.88 -82.19 330.59 -82.26C330.29 -82.33 329.96 -82.37 329.59 -82.37L329.26 -82.37L328.77 -82.37C328.59 -82.37 328.42 -82.41 328.27 -82.48C327.91 -82.48 327.28 -82.37 326.4 -82.15C325.81 -82.22 325.13 -82.32 324.36 -82.43C323.59 -82.54 322.58 -82.55 321.34 -82.48C321.19 -82.33 320.73 -82.28 319.96 -82.32C319.19 -82.35 318.62 -82.44 318.25 -82.59L316.6 -82.15C316.53 -82.15 316.43 -82.13 316.32 -82.1C316.21 -82.06 316.09 -82.04 315.94 -82.04L315.39 -82.04C315.17 -81.97 314.95 -81.93 314.73 -81.93C314.58 -81.86 314.42 -81.82 314.23 -81.82L313.74 -81.82C313.37 -81.82 313.02 -81.84 312.69 -81.88C312.36 -81.91 312.05 -81.93 311.75 -81.93C311.31 -81.93 310.56 -81.84 309.5 -81.66C308.43 -81.47 307.61 -81.31 307.02 -81.16C306.65 -81.31 306.3 -81.36 305.97 -81.32C305.64 -81.29 305.18 -81.2 304.6 -81.05L304.32 -81.05C304.21 -81.05 303.9 -81.09 303.39 -81.16C302.87 -81.16 302.39 -81.07 301.95 -80.88C301.51 -80.7 301.07 -80.54 300.63 -80.39C300.49 -80.46 300.27 -80.48 299.97 -80.44C299.68 -80.41 299.13 -80.17 298.32 -79.73L297.93 -79.73C297.75 -79.73 297.44 -79.58 297 -79.29C296.78 -79.22 296.59 -79.14 296.45 -79.07C296.3 -78.99 296.04 -78.77 295.68 -78.41C295.38 -78.26 295.05 -78.17 294.69 -78.13C294.32 -78.09 293.73 -78.08 292.92 -78.08C292.34 -77.86 291.71 -77.54 291.05 -77.14C290.39 -76.74 289.84 -76.09 289.4 -75.21L289.4 -73.89C289.4 -73.45 289.47 -73.01 289.62 -72.57C289.84 -72.13 290.12 -71.71 290.45 -71.3C290.78 -70.9 291.24 -70.62 291.82 -70.48C292.19 -70.19 292.61 -70 293.09 -69.93C293.57 -69.85 294.1 -69.82 294.69 -69.82C295.57 -70.33 296.45 -70.62 297.33 -70.7C297.84 -70.84 298.43 -71.1 299.09 -71.47C299.46 -71.54 299.77 -71.6 300.03 -71.63C300.28 -71.67 300.6 -71.73 300.96 -71.8C301.04 -71.43 301.15 -70.99 301.29 -70.48C301.29 -70.11 301.51 -69.23 301.95 -67.84L302.28 -62.33C302.28 -62.11 302.3 -61.87 302.34 -61.61C302.38 -61.36 302.43 -60.9 302.5 -60.24C302.5 -60.09 302.52 -59.91 302.56 -59.69C302.6 -59.47 302.61 -59.06 302.61 -58.47C302.61 -58.11 302.63 -57.8 302.67 -57.54C302.71 -57.28 302.72 -57.01 302.72 -56.71L302.72 -55.83L302.72 -55.28L302.72 -53.85C302.72 -53.63 302.76 -53.45 302.83 -53.3C302.91 -53.08 302.94 -52.86 302.94 -52.64C302.8 -52.2 302.69 -51.76 302.61 -51.32C302.54 -50.88 302.54 -50.18 302.61 -49.22C302.47 -49 302.38 -48.71 302.34 -48.34C302.3 -47.98 302.39 -47.39 302.61 -46.58L302.5 -43.94C302.43 -43.72 302.39 -43.48 302.39 -43.22C302.39 -42.97 302.47 -42.54 302.61 -41.96C302.69 -41.81 302.74 -41.59 302.78 -41.3C302.82 -41 302.8 -40.34 302.72 -39.31C302.65 -39.02 302.6 -38.69 302.56 -38.32C302.52 -37.96 302.54 -37.55 302.61 -37.11C302.61 -36.82 302.65 -36.54 302.72 -36.29C302.8 -36.03 302.83 -35.72 302.83 -35.35C302.76 -35.2 302.72 -35.06 302.72 -34.91L302.72 -33.81C302.5 -33.15 302.54 -32.52 302.83 -31.94C302.76 -31.64 302.72 -31.37 302.72 -31.11L302.72 -30.39C302.8 -30.1 302.83 -29.84 302.83 -29.62C302.83 -29.4 302.87 -29.15 302.94 -28.85C303.02 -28.41 303.04 -27.88 303 -27.26C302.96 -26.63 302.87 -25.58 302.72 -24.12C302.65 -23.82 302.6 -23.55 302.56 -23.29C302.52 -23.03 302.54 -22.69 302.61 -22.24L302.61 -18.94L302.5 -16.85C302.43 -16.56 302.39 -16.15 302.39 -15.64L302.39 -14.98C302.39 -14.68 302.36 -13.99 302.28 -12.88L302.28 -12.44C302.28 -12.3 302.21 -12 302.06 -11.56C301.99 -11.27 301.94 -10.99 301.9 -10.74C301.86 -10.48 301.84 -9.98 301.84 -9.25C301.7 -9.18 301.5 -9.12 301.24 -9.09C300.98 -9.05 300.49 -8.96 299.75 -8.81C299.24 -8.96 298.8 -8.88 298.43 -8.59C298.36 -8.59 298.26 -8.61 298.15 -8.64C298.04 -8.68 297.92 -8.7 297.77 -8.7C297.55 -8.7 297.37 -8.74 297.22 -8.81L296.78 -8.59C296.63 -8.52 296.47 -8.44 296.28 -8.37C296.1 -8.3 295.93 -8.26 295.79 -8.26C295.57 -8.26 295.13 -8.15 294.47 -7.93C294.25 -7.78 294.06 -7.65 293.92 -7.54C293.77 -7.43 293.47 -7.27 293.03 -7.05C292.37 -5.8 292.19 -4.7 292.48 -3.74C292.78 -2.79 293.4 -2.02 294.36 -1.43C294.87 -0.99 295.42 -0.77 296.01 -0.77C296.59 -0.11 297.33 0.18 298.21 0.11C298.65 -0.04 299.05 -0.18 299.42 -0.33L302.06 -0.33L305.15 0L306.47 -0.22C307.42 -0.37 308.45 -0.59 309.55 -0.88C309.7 -0.88 309.85 -0.9 309.99 -0.94C310.14 -0.97 310.4 -0.99 310.76 -0.99C310.91 -0.92 311.08 -0.95 311.26 -1.1C311.44 -1.25 311.79 -1.21 312.31 -0.99L315.06 -1.54L315.77 -1.54C316.1 -1.54 316.45 -1.58 316.82 -1.65L318.14 -1.87C318.44 -1.95 318.73 -2.06 319.02 -2.2C319.61 -2.5 319.94 -2.68 320.01 -2.75C320.16 -2.75 320.36 -2.83 320.62 -2.97C320.88 -3.12 321.15 -3.27 321.45 -3.41L322.55 -4.07C322.62 -4.22 322.69 -4.4 322.77 -4.63C322.84 -4.92 322.95 -5.43 323.1 -6.17L323.1 -8.26C322.95 -8.33 322.8 -8.44 322.66 -8.59C322.51 -8.74 322.38 -8.85 322.27 -8.92C322.16 -8.99 322.03 -9.1 321.89 -9.25C321.74 -9.47 321.54 -9.69 321.28 -9.91C321.02 -10.13 320.64 -10.42 320.12 -10.79L319.3 -10.96C319.11 -10.99 318.84 -10.98 318.47 -10.9C317.96 -11.2 317.44 -11.27 316.93 -11.12C316.42 -10.98 315.83 -10.79 315.17 -10.57L314.51 -10.35C314.29 -10.28 314.03 -10.17 313.74 -10.02C313.59 -9.95 313.42 -9.95 313.24 -10.02C313.06 -10.09 312.75 -10.31 312.31 -10.68C312.31 -11.12 312.29 -11.51 312.25 -11.84C312.21 -12.17 312.2 -12.48 312.2 -12.77C312.34 -13.14 312.34 -13.69 312.2 -14.43C312.27 -14.57 312.32 -14.79 312.36 -15.09C312.4 -15.38 312.49 -15.93 312.64 -16.74C312.64 -16.89 312.62 -17.07 312.58 -17.29C312.54 -17.51 312.6 -17.84 312.75 -18.28C312.75 -18.57 312.73 -18.78 312.69 -18.89C312.65 -19 312.64 -19.34 312.64 -19.93L312.64 -20.48C312.64 -20.7 312.6 -21.11 312.53 -21.69C312.82 -22.13 312.95 -22.59 312.91 -23.07C312.87 -23.55 312.78 -24.04 312.64 -24.56C312.71 -24.78 312.75 -25.07 312.75 -25.44C312.75 -25.81 312.82 -26.47 312.97 -27.42C313.19 -27.35 313.46 -27.27 313.79 -27.2C314.12 -27.13 314.58 -27.02 315.17 -26.87C315.24 -26.8 315.35 -26.74 315.5 -26.7C315.65 -26.67 316.09 -26.69 316.82 -26.76C316.97 -26.76 317.13 -26.74 317.32 -26.7C317.5 -26.67 317.92 -26.69 318.58 -26.76L318.86 -26.76C318.97 -26.76 319.28 -26.69 319.79 -26.54L321 -26.54L321.39 -26.54C321.57 -26.54 321.96 -26.47 322.55 -26.32C322.99 -26.32 323.39 -26.39 323.76 -26.54L324.14 -26.54C324.33 -26.54 324.71 -26.58 325.3 -26.65C325.59 -26.5 325.89 -26.41 326.18 -26.37C326.47 -26.34 327.02 -26.36 327.83 -26.43C327.98 -26.43 328.2 -26.47 328.49 -26.54C328.79 -26.61 329.45 -26.76 330.48 -26.98C330.62 -26.98 330.82 -26.96 331.08 -26.92C331.34 -26.89 331.61 -26.94 331.91 -27.09L332.13 -27.09L332.51 -27.09C332.62 -27.09 332.86 -27.13 333.23 -27.2L334.99 -27.2C335.36 -27.13 335.69 -27.07 335.98 -27.03C336.28 -27 336.61 -27.02 336.97 -27.09C337.34 -26.94 337.8 -26.85 338.35 -26.81C338.9 -26.78 339.4 -26.69 339.84 -26.54C339.91 -26.47 340 -26.36 340.11 -26.21C340.22 -26.06 340.61 -25.88 341.27 -25.66L341.71 -25.22C341.85 -25.07 342.19 -24.81 342.7 -24.45C342.99 -24.15 343.27 -23.9 343.52 -23.68C343.78 -23.46 344.13 -23.16 344.57 -22.8C344.64 -22.65 344.77 -22.43 344.96 -22.13C345.14 -21.84 345.64 -21.03 346.44 -19.71C346.59 -19.49 346.72 -19.18 346.83 -18.78C346.94 -18.37 347.07 -17.69 347.21 -16.74C347.58 -16.37 347.84 -16.02 347.98 -15.69C348.13 -15.36 348.17 -14.98 348.09 -14.54C348.09 -14.17 348.17 -13.62 348.32 -12.88C348.39 -12.66 348.44 -12.39 348.48 -12.06C348.52 -11.73 348.46 -11.2 348.32 -10.46C348.32 -10.31 348.3 -10.15 348.26 -9.97L348.09 -9.14C347.58 -9.14 347.09 -9.1 346.61 -9.03C346.13 -8.96 345.64 -8.92 345.12 -8.92C344.97 -8.85 344.79 -8.79 344.57 -8.75C344.35 -8.72 343.84 -8.59 343.03 -8.37C342.88 -8.37 342.72 -8.3 342.53 -8.15C342.35 -8 341.96 -7.71 341.38 -7.27C341.08 -7.05 340.86 -6.72 340.72 -6.28C340.57 -5.84 340.46 -5.03 340.39 -3.85C340.46 -3.78 340.5 -3.69 340.5 -3.58L340.5 -2.53C340.94 -2.39 341.27 -2.29 341.49 -2.26C341.71 -2.22 342 -2.06 342.37 -1.76C342.66 -1.62 342.99 -1.43 343.36 -1.21C343.73 -0.99 344.17 -0.84 344.68 -0.77C345.05 -0.7 345.36 -0.66 345.62 -0.66L346.33 -0.66L346.61 -0.66C346.72 -0.66 347.03 -0.59 347.54 -0.44C348.13 -0.29 348.65 -0.26 349.09 -0.33C349.6 -0.26 350.37 -0.29 351.4 -0.44L352.28 -0.22C352.57 -0.15 352.9 -0.07 353.27 0C353.78 0.15 354.26 0.28 354.7 0.39C355.14 0.5 355.44 0.55 355.58 0.55C355.73 0.62 355.91 0.66 356.13 0.66L357.57 0.66L358.56 0.66C358.85 0.66 359.18 0.62 359.55 0.55L360.37 0.55C360.56 0.55 360.83 0.62 361.2 0.77C361.34 0.92 361.55 1.01 361.81 1.05C362.06 1.08 362.56 1.1 363.29 1.1C363.44 1.25 363.91 1.17 364.72 0.88L366.6 0.88C366.74 0.51 366.85 0.28 366.93 0.17C367 0.06 367.22 -0.07 367.59 -0.22ZM353.49 -57.92L353.49 -57.37C353.49 -57.15 353.45 -56.75 353.38 -56.16C353.31 -56.02 353.25 -55.81 353.22 -55.56C353.18 -55.3 353.09 -54.88 352.94 -54.29C352.79 -54.07 352.72 -53.83 352.72 -53.57L352.72 -52.97L352.5 -52.53L352.17 -51.87C352.02 -51.43 351.91 -50.99 351.84 -50.55C351.77 -50.11 351.66 -49.66 351.51 -49.22C351.29 -49 350.92 -48.27 350.41 -47.02C350.41 -46.95 350.35 -46.84 350.24 -46.69C350.13 -46.54 349.86 -46.1 349.42 -45.37L348.54 -44.27C348.09 -43.46 347.58 -42.62 346.99 -41.74C346.85 -41.66 346.7 -41.57 346.55 -41.46C346.41 -41.35 346.15 -41.15 345.78 -40.86C345.64 -40.71 345.43 -40.56 345.18 -40.41C344.92 -40.27 344.35 -40.01 343.47 -39.64C343.4 -39.64 342.96 -39.46 342.15 -39.09C341.93 -38.87 341.76 -38.69 341.65 -38.54C341.54 -38.4 341.41 -38.21 341.27 -37.99C341.12 -37.99 340.99 -37.96 340.88 -37.88C340.77 -37.81 340.46 -37.62 339.95 -37.33C339.58 -37.33 339.23 -37.28 338.9 -37.17C338.57 -37.06 338.22 -36.96 337.85 -36.89C337.63 -36.82 337.39 -36.74 337.14 -36.67C336.88 -36.6 336.53 -36.49 336.09 -36.34C335.72 -36.49 335.34 -36.51 334.94 -36.4C334.53 -36.29 334.15 -36.16 333.78 -36.01C333.49 -35.86 333.17 -35.73 332.84 -35.62C332.51 -35.51 332.02 -35.42 331.36 -35.35C331.14 -35.35 330.88 -35.33 330.59 -35.29C330.29 -35.26 329.89 -35.2 329.37 -35.13L328.44 -35.13C328.11 -35.13 327.69 -35.06 327.17 -34.91C327.02 -34.91 326.86 -34.93 326.68 -34.96C326.49 -35 326.33 -35.02 326.18 -35.02L325.63 -35.02C325.41 -35.02 325.19 -35.06 324.97 -35.13L324.31 -35.13C324.24 -35.2 324.14 -35.24 324.03 -35.24L323.1 -35.24C322.88 -35.24 322.64 -35.22 322.38 -35.18C322.12 -35.15 321.7 -35.13 321.12 -35.13L320.51 -35.13C320.25 -35.13 320.01 -35.09 319.79 -35.02C319.13 -35.46 318.14 -35.53 316.82 -35.24C316.45 -35.39 315.65 -35.46 314.4 -35.46C314.18 -35.53 313.96 -35.57 313.74 -35.57C313.52 -35.57 313.15 -35.64 312.64 -35.79L312.64 -36.18C312.64 -36.36 312.67 -36.78 312.75 -37.44C312.82 -37.81 312.84 -38.18 312.8 -38.54C312.76 -38.91 312.64 -39.5 312.42 -40.3C312.56 -40.75 312.64 -41.15 312.64 -41.52C312.64 -41.74 312.53 -42.18 312.31 -42.84C312.53 -43.5 312.53 -44.12 312.31 -44.71C312.45 -45.3 312.49 -45.92 312.42 -46.58C312.34 -47.24 312.27 -47.79 312.2 -48.23C312.42 -48.97 312.53 -49.7 312.53 -50.44L312.53 -51.65C312.53 -51.94 312.56 -52.23 312.64 -52.53C312.56 -52.75 312.53 -53.01 312.53 -53.3L312.53 -54.29C312.53 -54.66 312.51 -55.08 312.47 -55.56C312.43 -56.03 312.34 -56.9 312.2 -58.14L312.2 -59.47C312.2 -59.98 312.16 -60.79 312.09 -61.89C312.16 -62.4 312.16 -63.36 312.09 -64.75C312.09 -65.12 312.03 -65.48 311.92 -65.85C311.81 -66.22 311.64 -66.84 311.42 -67.72C311.42 -67.8 311.41 -67.91 311.37 -68.06C311.33 -68.2 311.31 -68.5 311.31 -68.94L310.54 -71.36C310.62 -71.95 310.47 -72.68 310.1 -73.56C310.25 -73.63 311.02 -73.71 312.42 -73.78C312.64 -73.78 312.86 -73.76 313.08 -73.73C313.3 -73.69 313.52 -73.71 313.74 -73.78L314.07 -73.78C314.21 -73.78 314.54 -73.82 315.06 -73.89L315.77 -73.89C316.03 -73.89 316.42 -73.97 316.93 -74.11L317.92 -74.11L318.69 -74.11L319.13 -74.11C319.35 -74.11 319.68 -74.19 320.12 -74.33L320.4 -74.33C320.51 -74.33 320.82 -74.26 321.34 -74.11C321.7 -73.97 322.05 -73.89 322.38 -73.89L323.43 -73.89L323.81 -73.89C323.92 -73.89 324.27 -73.97 324.86 -74.11C325.59 -73.97 326.36 -73.97 327.17 -74.11C327.83 -74.19 328.42 -74.11 328.93 -73.89C329.52 -73.97 329.91 -74.02 330.09 -74.06C330.27 -74.09 330.44 -74.11 330.59 -74.11C330.66 -74.19 331.1 -74.22 331.91 -74.22C331.98 -74.15 332.46 -74.08 333.34 -74C333.71 -74 334.26 -73.82 334.99 -73.45C335.36 -73.38 335.65 -73.32 335.87 -73.29C336.09 -73.25 336.39 -73.08 336.75 -72.79C337.12 -72.94 337.43 -72.99 337.69 -72.96C337.95 -72.92 338.48 -72.83 339.29 -72.68C339.36 -72.61 339.95 -72.39 341.05 -72.02C341.41 -71.73 341.8 -71.56 342.2 -71.52C342.61 -71.49 343.21 -71.4 344.02 -71.25C344.31 -70.88 344.86 -70.44 345.67 -69.93L347.21 -69.16C347.36 -68.94 347.56 -68.72 347.82 -68.5C348.08 -68.28 348.46 -68.02 348.98 -67.72C349.34 -67.72 349.75 -67.54 350.19 -67.17C350.33 -66.73 350.59 -66.4 350.96 -66.18C351.1 -66.04 351.23 -65.93 351.34 -65.85C351.45 -65.78 351.66 -65.63 351.95 -65.41C352.02 -65.19 352.11 -64.9 352.22 -64.53C352.33 -64.16 352.54 -63.69 352.83 -63.1L352.83 -62.71C352.83 -62.6 352.9 -62.26 353.05 -61.67C353.05 -61.52 353.09 -61.32 353.16 -61.06C353.23 -60.81 353.34 -60.2 353.49 -59.25Z M445.77 -3.85C445.85 -4.59 445.63 -5.58 445.11 -6.83C444.89 -7.19 444.67 -7.49 444.45 -7.71L443.68 -8.48C443.39 -8.63 443.11 -8.74 442.85 -8.81C442.6 -8.88 442.18 -9.07 441.59 -9.36C440.56 -9.51 439.86 -9.47 439.5 -9.25C439.42 -9.25 439.26 -9.23 439 -9.2C438.74 -9.16 438.47 -9.14 438.17 -9.14L436.96 -9.14C436.82 -9.07 436.63 -8.99 436.41 -8.92C436.12 -8.85 435.42 -8.81 434.32 -8.81C434.25 -8.96 434.19 -9.09 434.16 -9.2C434.12 -9.31 433.95 -9.65 433.66 -10.24C433.59 -10.39 433.51 -10.57 433.44 -10.79L433 -12.11C432.85 -12.11 432.71 -12.19 432.56 -12.33C432.41 -12.48 432.34 -12.88 432.34 -13.54C431.9 -13.91 431.6 -14.22 431.46 -14.48C431.31 -14.74 431.2 -15.01 431.13 -15.31C430.98 -15.67 430.81 -16.08 430.63 -16.52C430.45 -16.96 430.1 -17.58 429.59 -18.39C429.59 -18.76 429.51 -19.16 429.36 -19.6C429.44 -20.04 429.4 -20.48 429.25 -20.92C429.11 -21.36 428.78 -21.99 428.26 -22.8C428.04 -23.09 427.88 -23.36 427.77 -23.62C427.66 -23.88 427.53 -24.15 427.38 -24.45L427.16 -25.55C427.09 -25.92 426.98 -26.39 426.83 -26.98C426.61 -27.27 426.32 -27.71 425.95 -28.3C425.58 -28.89 425.18 -29.48 424.74 -30.06C424.67 -30.21 424.59 -30.34 424.52 -30.45C424.45 -30.56 424.23 -30.8 423.86 -31.16C423.86 -31.31 423.82 -31.53 423.75 -31.83C423.68 -32.12 423.45 -32.56 423.09 -33.15C423.01 -33.66 422.87 -34.1 422.65 -34.47C422.57 -34.84 422.45 -35.24 422.26 -35.68C422.08 -36.12 421.73 -36.67 421.22 -37.33C421.14 -37.4 421.09 -37.55 421.05 -37.77C421.01 -37.99 420.96 -38.47 420.89 -39.2C420.44 -39.79 420.1 -40.34 419.84 -40.86C419.58 -41.37 419.34 -42.03 419.12 -42.84C418.83 -42.98 418.63 -43.13 418.52 -43.28C418.41 -43.42 418.21 -43.87 417.91 -44.6L417.64 -45.15C417.53 -45.37 417.29 -45.88 416.92 -46.69C416.92 -46.77 416.9 -46.88 416.87 -47.02L416.59 -48.12C416.52 -48.27 416.39 -48.47 416.21 -48.73C416.02 -48.99 415.86 -49.22 415.71 -49.44C415.64 -49.59 415.42 -50.11 415.05 -50.99C414.98 -51.28 414.85 -51.63 414.66 -52.03C414.48 -52.44 414.09 -53.12 413.51 -54.07L412.19 -56.71L411.53 -58.36C411.45 -58.66 411.27 -59.03 410.97 -59.47C410.97 -59.69 410.99 -59.91 411.03 -60.13C411.07 -60.35 411.05 -60.57 410.97 -60.79C410.83 -61.23 410.66 -61.58 410.48 -61.83C410.3 -62.09 410.06 -62.4 409.76 -62.77C409.62 -62.92 409.49 -63.08 409.38 -63.26C409.27 -63.45 409.18 -63.72 409.1 -64.09C409.1 -64.16 409.08 -64.27 409.05 -64.42C409.01 -64.57 408.99 -64.71 408.99 -64.86L408.99 -65.41L408.77 -65.85C408.7 -66 408.63 -66.13 408.55 -66.24C408.48 -66.35 408.4 -66.48 408.33 -66.62L407.23 -68.61C406.86 -69.05 406.61 -69.47 406.46 -69.87L405.8 -71.69C405.8 -71.84 405.78 -72.02 405.74 -72.24C405.71 -72.46 405.69 -72.83 405.69 -73.34C405.25 -73.78 404.97 -74.13 404.86 -74.39C404.75 -74.64 404.66 -74.99 404.59 -75.43C404.29 -75.8 404.02 -76.26 403.76 -76.81C403.5 -77.36 403.01 -78.37 402.27 -79.84C402.13 -80.06 401.94 -80.32 401.72 -80.61C401.5 -80.9 400.99 -81.34 400.18 -81.93C399.74 -82.22 399.23 -82.37 398.64 -82.37C398.42 -82.44 398.18 -82.46 397.93 -82.43C397.67 -82.39 397.21 -82.3 396.55 -82.15C396.48 -82.15 396.14 -81.93 395.56 -81.49C395.26 -81.27 395.01 -81.09 394.79 -80.94C394.64 -80.79 394.49 -80.61 394.35 -80.39C394.2 -80.24 394.05 -80.06 393.91 -79.84C393.76 -79.62 393.65 -79.4 393.58 -79.18C393.35 -78.96 393.17 -78.63 393.02 -78.19C392.95 -77.97 392.88 -77.78 392.8 -77.64C392.73 -77.42 392.66 -77.16 392.58 -76.86L392.36 -76.2C392.29 -75.98 392.25 -75.84 392.25 -75.76C392.18 -75.54 392.11 -75.3 392.03 -75.05C391.96 -74.79 391.92 -74.55 391.92 -74.33C391.7 -74.04 391.56 -73.76 391.48 -73.51C391.41 -73.25 391.34 -73.05 391.26 -72.9C391.12 -72.68 391.02 -72.46 390.99 -72.24C390.95 -72.02 390.79 -71.54 390.49 -70.81C390.34 -70.66 390.22 -70.46 390.11 -70.2C390 -69.95 389.83 -69.45 389.61 -68.72C389.76 -68.5 389.81 -68.33 389.78 -68.22C389.74 -68.11 389.61 -67.87 389.39 -67.5C389.1 -67.06 388.91 -66.7 388.84 -66.4C388.69 -66.18 388.62 -65.96 388.62 -65.74C388.62 -65.52 388.58 -65.34 388.51 -65.19L388.51 -64.7C388.51 -64.51 388.47 -64.24 388.4 -63.87C388.33 -63.72 388.23 -63.6 388.12 -63.49L387.41 -62.77C387.41 -62.33 387.39 -62.04 387.35 -61.89C387.32 -61.74 387.3 -61.59 387.3 -61.45C387.22 -61.3 387.17 -61.12 387.13 -60.9C387.1 -60.68 387 -60.46 386.86 -60.24C386.71 -59.8 386.58 -59.32 386.47 -58.81C386.36 -58.29 386.27 -57.78 386.2 -57.26L385.43 -56.27L385.43 -55.61C385.43 -55.47 385.35 -55.21 385.21 -54.84C385.13 -54.69 385.04 -54.44 384.93 -54.07C384.82 -53.7 384.58 -53.19 384.21 -52.53C384.21 -52.23 384.23 -52.01 384.27 -51.87C384.31 -51.72 384.25 -51.5 384.1 -51.21C383.96 -51.06 383.83 -50.86 383.72 -50.6C383.61 -50.34 383.44 -49.66 383.22 -48.56C383.15 -48.49 383.06 -48.38 382.95 -48.23C382.84 -48.09 382.56 -47.79 382.12 -47.35C382.12 -47.06 382.1 -46.86 382.07 -46.75C382.03 -46.64 381.83 -46.32 381.46 -45.81C381.61 -45.22 381.65 -44.78 381.57 -44.49C381.35 -44.2 381.22 -43.92 381.19 -43.66C381.15 -43.41 381.09 -43.06 381.02 -42.62C380.87 -42.47 380.73 -42.27 380.58 -42.01C380.43 -41.75 380.21 -41.44 379.92 -41.08C379.85 -40.49 379.79 -39.97 379.75 -39.53C379.72 -39.09 379.66 -38.65 379.59 -38.21C379.44 -37.85 379.28 -37.4 379.09 -36.89C378.91 -36.38 378.49 -35.61 377.83 -34.58C377.31 -33.77 377.06 -32.89 377.06 -31.94C376.84 -31.49 376.69 -31.04 376.62 -30.56C376.54 -30.08 376.43 -29.55 376.29 -28.96C375.99 -28.59 375.81 -28.15 375.74 -27.64C375.66 -27.13 375.52 -26.43 375.29 -25.55C375.07 -25.03 374.93 -24.59 374.85 -24.23C374.78 -24.08 374.71 -23.9 374.63 -23.68C374.56 -23.46 374.34 -23.13 373.97 -22.69C373.9 -22.32 373.85 -22.06 373.81 -21.91C373.77 -21.77 373.68 -21.51 373.53 -21.14C373.46 -21 373.39 -20.79 373.31 -20.54C373.24 -20.28 373.17 -20.01 373.09 -19.71C372.8 -19.42 372.62 -19.09 372.54 -18.72L372.32 -17.62C372.25 -17.47 372.17 -17.29 372.1 -17.07C372.03 -16.85 371.84 -16.41 371.55 -15.75C371.4 -15.38 371.31 -15.01 371.28 -14.65C371.24 -14.28 371.22 -13.77 371.22 -13.1C371 -12.81 370.85 -12.54 370.78 -12.28C370.71 -12.02 370.63 -11.78 370.56 -11.56L370.56 -10.68C370.56 -10.39 370.52 -9.98 370.45 -9.47L369.79 -8.26C369.72 -7.97 369.66 -7.67 369.62 -7.38C369.59 -7.08 369.5 -6.75 369.35 -6.39C369.28 -6.39 369.2 -6.41 369.13 -6.44C369.05 -6.48 368.72 -6.53 368.14 -6.61C367.92 -6.61 367.51 -6.53 366.93 -6.39C366.63 -6.31 366.23 -6.28 365.71 -6.28C365.42 -6.2 365.13 -6.19 364.83 -6.22C364.54 -6.26 364.17 -6.31 363.73 -6.39C363 -6.61 362.36 -6.66 361.81 -6.55C361.25 -6.44 360.69 -6.31 360.1 -6.17C359.88 -6.09 359.62 -5.96 359.33 -5.78C359.03 -5.6 358.48 -5.1 357.68 -4.29C357.31 -3.78 357.12 -3.12 357.12 -2.31L357.12 -0.88C357.42 -0.29 357.69 0.11 357.95 0.33C358.21 0.55 358.52 0.73 358.89 0.88C359.25 1.76 359.93 2.31 360.92 2.53C361.92 2.75 362.81 2.86 363.62 2.86C363.92 2.64 364.43 2.53 365.16 2.53L367.26 2.53L368.47 2.53C368.76 2.68 369.09 2.75 369.46 2.75L370.34 2.75C370.41 2.75 370.69 2.77 371.17 2.81C371.64 2.84 372.17 2.86 372.76 2.86L374.58 2.86L376.07 2.86C376.36 2.86 376.67 2.84 377 2.81C377.33 2.77 377.79 2.68 378.38 2.53C378.89 2.61 379.44 2.53 380.03 2.31C380.84 2.46 381.63 2.51 382.4 2.48C383.17 2.44 384.1 2.42 385.21 2.42C385.94 2.13 386.42 1.93 386.64 1.82L387.19 1.54C387.26 1.47 387.41 1.39 387.63 1.32C387.85 1.25 388.4 0.99 389.28 0.55C389.43 0.4 389.59 0.22 389.78 0C389.96 -0.22 390.12 -0.51 390.27 -0.88C390.27 -0.95 390.29 -1.03 390.33 -1.1C390.36 -1.17 390.53 -1.47 390.82 -1.98C391.12 -2.64 391.21 -3.25 391.1 -3.8C390.99 -4.35 390.53 -5.21 389.72 -6.39C389.21 -6.46 388.9 -6.52 388.78 -6.55C388.67 -6.59 388.55 -6.64 388.4 -6.72C388.25 -6.79 388.05 -6.88 387.79 -6.99C387.54 -7.1 387.11 -7.27 386.53 -7.49C386.09 -7.19 385.68 -7.14 385.32 -7.32C384.95 -7.51 384.58 -7.6 384.21 -7.6L383.22 -7.6C382.86 -7.6 382.49 -7.52 382.12 -7.38C381.76 -7.45 381.44 -7.45 381.19 -7.38C380.93 -7.3 380.65 -7.23 380.36 -7.16C380.14 -7.08 379.87 -7.01 379.53 -6.94C379.2 -6.86 378.75 -6.75 378.16 -6.61C378.23 -6.83 378.6 -7.49 379.26 -8.59L379.92 -10.68C379.85 -11.12 379.83 -11.42 379.87 -11.56C379.9 -11.71 379.96 -11.86 380.03 -12L380.36 -13.32C380.65 -13.84 380.87 -14.39 381.02 -14.98C381.02 -15.12 381.08 -15.27 381.19 -15.42C381.3 -15.56 381.43 -15.71 381.57 -15.86L382.01 -16.52C382.01 -16.96 382.05 -17.33 382.12 -17.62C382.2 -17.91 382.29 -18.19 382.4 -18.45C382.51 -18.7 382.67 -18.9 382.89 -19.05C382.89 -19.49 382.91 -19.79 382.95 -19.93C382.99 -20.08 383.11 -20.23 383.33 -20.37C383.33 -20.89 383.37 -21.24 383.44 -21.42C383.52 -21.6 383.63 -21.91 383.77 -22.35C383.85 -22.5 383.92 -22.69 383.99 -22.91C384.07 -23.13 384.18 -23.35 384.32 -23.57L384.77 -24.45L385.43 -27.2L387.3 -27.2L389.39 -27.2C389.54 -27.2 389.68 -27.22 389.83 -27.26C389.98 -27.29 390.23 -27.31 390.6 -27.31C390.82 -27.24 391.3 -27.2 392.03 -27.2C392.33 -27.13 392.64 -27.11 392.97 -27.15C393.3 -27.18 393.65 -27.24 394.02 -27.31C394.24 -27.24 394.44 -27.18 394.62 -27.15C394.8 -27.11 395.01 -27.09 395.23 -27.09C395.89 -27.09 396.57 -27.13 397.26 -27.2C397.96 -27.27 398.64 -27.27 399.3 -27.2C399.52 -27.2 399.76 -27.22 400.02 -27.26C400.27 -27.29 400.66 -27.31 401.17 -27.31C401.54 -27.16 401.91 -27.13 402.27 -27.2C402.64 -27.27 403.16 -27.38 403.82 -27.53C404.04 -27.46 404.29 -27.42 404.59 -27.42C404.88 -27.42 405.32 -27.49 405.91 -27.64C406.06 -27.64 406.24 -27.66 406.46 -27.7C406.68 -27.73 406.97 -27.79 407.34 -27.86C407.49 -27.86 407.63 -27.88 407.78 -27.92C407.93 -27.95 408.26 -27.9 408.77 -27.75C408.92 -27.75 409.08 -27.71 409.27 -27.64C409.45 -27.57 409.69 -27.53 409.98 -27.53C410.2 -27.53 410.44 -27.55 410.7 -27.59C410.96 -27.62 411.34 -27.71 411.86 -27.86C412 -27.86 412.15 -27.84 412.3 -27.81C412.44 -27.77 412.74 -27.64 413.18 -27.42C413.47 -27.49 413.75 -27.49 414 -27.42C414.26 -27.35 414.83 -27.09 415.71 -26.65L416.37 -25.55C416.59 -25.18 416.88 -24.67 417.25 -24.01C417.4 -23.86 417.51 -23.66 417.58 -23.4C417.66 -23.14 417.77 -22.65 417.91 -21.91C418.28 -21.55 418.5 -21.29 418.57 -21.14C418.65 -21 418.76 -20.74 418.9 -20.37C419.05 -19.56 419.27 -18.87 419.56 -18.28C419.56 -18.13 419.58 -18 419.62 -17.89C419.66 -17.78 419.71 -17.47 419.78 -16.96C420.3 -16.3 420.67 -15.75 420.89 -15.31C421.11 -14.65 421.44 -13.77 421.88 -12.66C422.02 -12.22 422.19 -11.8 422.37 -11.4C422.56 -10.99 422.72 -10.42 422.87 -9.69C422.94 -9.32 422.98 -8.99 422.98 -8.7C422.98 -8.41 422.79 -8.08 422.43 -7.71C422.28 -7.71 422.13 -7.69 421.99 -7.65C421.84 -7.62 421.58 -7.63 421.22 -7.71C420.7 -7.34 420.19 -7.08 419.67 -6.94C419.16 -6.79 418.32 -6.64 417.14 -6.5C416.99 -6.42 416.83 -6.35 416.65 -6.28C416.46 -6.2 416.04 -5.91 415.38 -5.4L414.99 -5.01C414.81 -4.83 414.5 -4.48 414.06 -3.96L414.39 -0.44C414.9 -0.07 415.29 0.24 415.54 0.5L417.03 1.98C417.69 2.2 418.24 2.31 418.68 2.31C419.12 2.31 419.56 2.28 420 2.2C420.15 2.2 420.35 2.22 420.61 2.26C420.87 2.29 421.44 2.17 422.32 1.87C423.05 1.43 423.57 1.21 423.86 1.21C424 1.21 424.15 1.19 424.3 1.16C424.44 1.12 424.7 1.03 425.07 0.88C425.22 0.95 425.42 0.99 425.68 0.99C425.93 0.99 426.39 0.92 427.05 0.77C427.42 0.92 427.77 0.97 428.1 0.94C428.43 0.9 428.7 0.84 428.92 0.77C429.51 0.92 429.99 0.88 430.36 0.66C431.09 0.81 431.53 0.88 431.68 0.88L434.1 0.88C434.1 0.95 434.21 0.95 434.43 0.88C434.58 0.88 434.78 0.84 435.04 0.77C435.29 0.7 435.71 0.59 436.3 0.44C436.45 0.37 436.65 0.33 436.91 0.33L437.62 0.33C438.06 0.4 438.58 0.37 439.17 0.22C440.12 0.59 440.93 0.55 441.59 0.11C442.03 0.18 442.45 0.13 442.85 -0.06C443.26 -0.24 443.64 -0.44 444.01 -0.66L445.11 -1.54C445.26 -1.84 445.37 -2.13 445.44 -2.42C445.52 -2.64 445.57 -2.9 445.61 -3.19C445.64 -3.49 445.7 -3.71 445.77 -3.85ZM411.53 -37.55C411.23 -37.55 410.92 -37.51 410.59 -37.44C410.26 -37.37 409.87 -37.29 409.43 -37.22C409.07 -37.15 408.77 -37.11 408.55 -37.11C408.33 -37.11 408.04 -37.04 407.67 -36.89C407.23 -37.04 406.83 -37.11 406.46 -37.11C406.17 -37.11 405.85 -37.07 405.52 -37C405.19 -36.93 404.88 -36.89 404.59 -36.89L404.09 -36.89C403.91 -36.89 403.74 -36.93 403.6 -37L402.94 -37.22C402.79 -37.15 402.61 -37.11 402.38 -37.11L401.28 -37.11C400.99 -37.04 400.68 -36.98 400.35 -36.95C400.02 -36.91 399.6 -36.82 399.08 -36.67C398.79 -36.74 398.48 -36.76 398.15 -36.73C397.81 -36.69 397.28 -36.63 396.55 -36.56C396.18 -36.56 395.89 -36.6 395.67 -36.67L395.01 -36.89C394.79 -36.82 394.53 -36.74 394.24 -36.67C394.02 -36.6 393.76 -36.56 393.47 -36.56C393.17 -36.56 392.95 -36.63 392.8 -36.78C392.36 -36.63 392.02 -36.54 391.76 -36.51C391.5 -36.47 391.23 -36.49 390.93 -36.56C390.57 -36.63 390.2 -36.69 389.83 -36.73C389.46 -36.76 388.99 -36.71 388.4 -36.56C388.69 -37.51 388.88 -38.4 388.95 -39.2C388.95 -39.35 388.99 -39.5 389.06 -39.64C389.13 -39.79 389.28 -40.16 389.5 -40.75C389.5 -40.82 389.54 -40.93 389.61 -41.08C389.68 -41.22 389.9 -41.59 390.27 -42.18C390.34 -42.32 390.44 -42.49 390.55 -42.67C390.66 -42.86 390.82 -43.39 391.04 -44.27C391.12 -44.42 391.19 -44.6 391.26 -44.82C391.34 -45.04 391.41 -45.33 391.48 -45.7C391.56 -45.77 391.61 -45.88 391.65 -46.03C391.68 -46.18 391.85 -46.54 392.14 -47.13C392.51 -47.57 392.8 -48.07 393.02 -48.62C393.24 -49.17 393.47 -49.89 393.69 -50.77C393.69 -50.84 393.7 -50.97 393.74 -51.15C393.78 -51.34 393.94 -51.72 394.24 -52.31C394.38 -52.67 394.49 -53.06 394.57 -53.46C394.64 -53.87 394.71 -54.25 394.79 -54.62C394.93 -54.99 395.04 -55.39 395.12 -55.83C395.19 -56.27 395.41 -56.9 395.78 -57.7C396 -58.07 396.2 -58.51 396.38 -59.03C396.57 -59.54 396.84 -60.42 397.21 -61.67C397.21 -61.81 397.36 -62.18 397.65 -62.77L398.09 -63.65C398.02 -63.87 398.02 -64.09 398.09 -64.31C398.24 -64.83 398.49 -65.12 398.86 -65.19C398.93 -65.05 399.03 -64.84 399.14 -64.59C399.25 -64.33 399.45 -63.87 399.74 -63.21C399.82 -63.06 399.89 -62.86 399.96 -62.6C400.04 -62.35 400.26 -61.89 400.62 -61.23L400.84 -60.79C400.92 -60.64 401.03 -60.27 401.17 -59.69C401.47 -59.17 401.65 -58.82 401.72 -58.64C401.8 -58.46 401.98 -57.96 402.27 -57.15C402.2 -56.49 402.35 -55.85 402.72 -55.23C403.08 -54.6 403.45 -54.11 403.82 -53.74C403.89 -53.45 403.98 -53.13 404.09 -52.8C404.2 -52.47 404.44 -52.12 404.81 -51.76C404.95 -51.32 405.17 -50.77 405.47 -50.11C405.76 -49.44 406.09 -48.89 406.46 -48.45L406.68 -47.79C406.75 -47.57 406.97 -47.21 407.34 -46.69C407.34 -46.62 407.38 -46.53 407.45 -46.42C407.52 -46.31 407.71 -45.99 408 -45.48C408 -44.89 408.06 -44.42 408.17 -44.05C408.28 -43.68 408.4 -43.39 408.55 -43.17L408.77 -42.73C408.85 -42.58 408.96 -42.21 409.1 -41.63L409.98 -40.41C410.06 -40.12 410.18 -39.77 410.37 -39.37C410.55 -38.96 410.94 -38.36 411.53 -37.55Z"></path></g></svg>