<svg width="27" height="37" viewBox="0 0 27 37" fill="none" xmlns="http://www.w3.org/2000/svg">
<path d="M13.5 0.777832C6.32929 0.777832 0.515808 6.34093 0.515808 13.2027C0.515808 13.728 0.559846 14.24 0.626968 14.7475C1.73644 24.453 12.6569 35.639 12.6569 35.639C12.8515 35.8474 13.0391 35.9759 13.2197 36.069L13.229 36.0734L13.5926 36.1842L13.9563 36.0734L13.9656 36.069C14.1462 35.9759 14.3339 35.8407 14.5284 35.639C14.5284 35.639 25.2914 24.4331 26.3753 14.7254C26.4402 14.2246 26.4842 13.717 26.4842 13.2006C26.4818 6.34093 20.6707 0.777832 13.5 0.777832ZM13.5 21.195C8.89557 21.195 5.14812 17.6089 5.14812 13.2028C5.14812 8.79669 8.89557 5.21064 13.5 5.21064C18.1044 5.21064 21.8496 8.79669 21.8496 13.2028C21.8496 17.6089 18.1044 21.195 13.5 21.195Z" fill="#322760"/>
</svg>
