<svg id="SvgjsSvg1024" width="100%" height="100%" xmlns="http://www.w3.org/2000/svg" version="1.1" xlink="http://www.w3.org/1999/xlink" xmlns:svgjs="http://svgjs.com/svgjs" viewBox="5.229643821716309 6.3130035400390625 91.94935607910156 93.68699645996094">
    <defs id="SvgjsDefs1025"></defs><g id="SvgjsG1026" fill="#000000"><path fill="#16055A" d="M37.737 24.769a2.644 2.644 0 1 0 5.289 0 2.644 2.644 0 0 0-5.289 0zm5.573 3.572a2.644 2.644 0 1 0 5.289 0 2.644 2.644 0 0 0-5.289 0zM32.406 56.48c2.121.627 4.419.506 6.893-.361.292-4.416-.612-7.89-2.247-8.119-1.794-.252-3.82 3.492-4.646 8.48zm46.385 18.618c1.937 2.538 3.435 5.964 4.275 9.91 2.875-2.351 6.358-3.727 10.112-3.727 1.375 0 2.715.185 4.001.535-7.272 1.977-12.852 9.227-13.738 18.184H30.545a30.706 30.706 0 0 1-.958-7.682c0-5.538 1.423-10.596 3.768-14.451-1.52-5.242-2.37-11.104-2.37-17.289 0-1.367.041-2.719.123-4.052-10.531-2.403-18.53-8.207-20.755-15.34a5.842 5.842 0 1 1 1.605-11.572c4.706-7.639 16.36-13.045 29.992-13.045 4.019 0 7.865.47 11.412 1.328.404-6.638 1.969-11.584 3.835-11.584 2.114 0 3.839 6.341 3.934 14.298l.375.18c3.065-6.45 6.69-10.831 8.494-10.065 1.922.816 1.077 7.181-1.858 14.434 2.231 1.984 3.922 4.233 4.937 6.658 4.542 7.327 7.356 17.507 7.356 28.761 0 5.117-.582 10.013-1.644 14.519z"></path></g></svg>