<?xml version="1.0" encoding="utf-8"?><svg xmlns="http://www.w3.org/2000/svg" xmlns:xlink="http://www.w3.org/1999/xlink"><symbol viewBox="0 0 27 37" id="marker" xmlns="http://www.w3.org/2000/svg"><path d="M13.5.778C6.33.778.516 6.34.516 13.203c0 .525.044 1.037.111 1.545 1.11 9.705 12.03 20.891 12.03 20.891.194.208.382.337.563.43l.009.004.364.111.363-.11.01-.005c.18-.093.368-.228.562-.43 0 0 10.763-11.206 11.847-20.914.065-.5.11-1.008.11-1.524C26.481 6.34 20.67.778 13.5.778zm0 20.417c-4.604 0-8.352-3.586-8.352-7.992 0-4.406 3.748-7.992 8.352-7.992s8.35 3.586 8.35 7.992c0 4.406-3.746 7.992-8.35 7.992z"/></symbol>
    <symbol viewBox="0 0 50 50" id="facebook"><g clip-path="url(#clip0)">
        <path d="M21.9969 43.5214C34.1379 43.5214 43.9801 33.9992 43.9801 22.2529C43.9801 10.5066 34.1379 0.984375 21.9969 0.984375C9.85589 0.984375 0.0136719 10.5066 0.0136719 22.2529C0.0136719 33.9992 9.85589 43.5214 21.9969 43.5214Z" fill="#3A5A98"/>
        <path d="M37.5478 7.24512C46.1328 15.551 46.1331 29.0181 37.5474 37.3246C28.9621 45.6304 15.0422 45.6304 6.45721 37.3246L37.5478 7.24512Z" fill="#345387"/>
        <path d="M43.8375 24.6485L27.9356 9.26318L19.6793 17.2511L20.1711 17.7269L15.4704 22.2745L19.3179 25.9969L18.8119 26.4862L22.9773 30.5163L18.1752 35.1623L26.3787 43.0991C35.6295 41.2879 42.7701 33.8572 43.8375 24.6485Z" fill="#2E4D72"/>
        <path d="M18.1533 14.3522C18.1533 15.0047 18.1533 17.9191 18.1533 17.9191H15.4523V22.281H18.1533V35.2416H23.7017V22.281H27.4249C27.4249 22.281 27.7737 20.1891 27.9424 17.9027C27.4578 17.9027 23.7228 17.9027 23.7228 17.9027C23.7228 17.9027 23.7228 15.3648 23.7228 14.9201C23.7228 14.4747 24.3275 13.8753 24.9256 13.8753C25.5226 13.8753 26.7824 13.8753 27.9486 13.8753C27.9486 13.2808 27.9486 11.2293 27.9486 9.33447C26.3914 9.33447 24.6198 9.33447 23.8384 9.33447C18.0159 9.3342 18.1533 13.7001 18.1533 14.3522Z" fill="white"/>
    </g>
        <defs>
            <clipPath id="clip0">
                <rect width="44" height="42.5695" fill="white" transform="translate(0 0.984375)"/>
            </clipPath>
        </defs>
    </symbol>
    <symbol  viewBox="0 0 50 50" id="inst">
        <g clip-path="url(#clip0)">
            <path d="M22.5 43.5539C34.9264 43.5539 45 34.0244 45 22.2691C45 10.5139 34.9264 0.984375 22.5 0.984375C10.0736 0.984375 0 10.5139 0 22.2691C0 34.0244 10.0736 43.5539 22.5 43.5539Z" fill="#6C27B3"/>
            <path d="M32.9335 12.0354C30.2452 12.3574 27.4422 12.3461 24.6213 12.092C20.6818 11.8054 14.9243 10.0854 12.8031 13.5254C9.39537 19.0325 11.0761 26.083 11.8702 32.3223L23.7123 43.5224C35.1722 42.9468 44.3566 34.2596 44.967 23.4191L32.9335 12.0354Z" fill="#501A96"/>
            <path d="M27.7054 10.0864H17.2944C13.0633 10.0864 9.62115 13.3427 9.62115 17.3452V27.194C9.62115 31.1963 13.0633 34.4528 17.2944 34.4528H27.7055C31.9364 34.4528 35.3788 31.1965 35.3788 27.194V17.3452C35.3787 13.3427 31.9365 10.0864 27.7054 10.0864ZM32.7875 27.1941C32.7875 29.8492 30.5122 32.0016 27.7055 32.0016H17.2944C14.4877 32.0016 12.2124 29.8492 12.2124 27.1941V17.3453C12.2124 14.6902 14.4877 12.5377 17.2944 12.5377H27.7055C30.5122 12.5377 32.7875 14.6903 32.7875 17.3453V27.1941Z" fill="white"/>
            <path d="M22.4999 15.9678C18.8266 15.9678 15.838 18.795 15.838 22.2699C15.838 25.7446 18.8266 28.5718 22.4999 28.5718C26.1732 28.5718 29.1616 25.7448 29.1616 22.2699C29.1616 18.795 26.1732 15.9678 22.4999 15.9678ZM22.4999 26.1205C20.2518 26.1205 18.4292 24.3967 18.4292 22.2699C18.4292 20.1431 20.2518 18.419 22.4999 18.419C24.7481 18.419 26.5704 20.143 26.5704 22.2699C26.5704 24.3966 24.7481 26.1205 22.4999 26.1205Z" fill="white"/>
            <path d="M30.7707 16.015C30.7707 16.849 30.0559 17.5252 29.1743 17.5252C28.2928 17.5252 27.5779 16.849 27.5779 16.015C27.5779 15.181 28.2928 14.5049 29.1743 14.5049C30.0561 14.5049 30.7707 15.1808 30.7707 16.015Z" fill="#D1D1D1"/>
            <path d="M27.7056 10.0864H22.4495V12.5377H27.7056C30.5123 12.5377 32.7876 14.6903 32.7876 17.3453V27.1941C32.7876 29.8492 30.5123 32.0016 27.7056 32.0016H22.4495V34.4528H27.7056C31.9364 34.4528 35.3788 31.1965 35.3788 27.194V17.3452C35.3788 13.3427 31.9365 10.0864 27.7056 10.0864Z" fill="#D1D1D1"/>
            <path d="M22.5 15.9678C22.483 15.9678 22.4665 15.9689 22.4495 15.9689V18.4202C22.4663 18.42 22.483 18.419 22.5 18.419C24.7481 18.419 26.5705 20.143 26.5705 22.2699C26.5705 24.3966 24.7482 26.1205 22.5 26.1205C22.483 26.1205 22.4663 26.1195 22.4495 26.1194V28.5706C22.4665 28.5708 22.483 28.5718 22.5 28.5718C26.1733 28.5718 29.1616 25.7447 29.1616 22.2699C29.1616 18.795 26.1733 15.9678 22.5 15.9678Z" fill="#D1D1D1"/>
        </g>
        <defs>
            <clipPath id="clip0">
                <rect width="45" height="42.5695" fill="white" transform="translate(0 0.984375)"/>
            </clipPath>
        </defs>
    </symbol>
    <symbol  viewBox="0 0 50 50" id="vk">
        <g clip-path="url(#clip0)">
            <path d="M44.9995 22.2701C44.9995 34.0255 34.9266 43.5532 22.4999 43.5532C10.0738 43.5532 0.000915527 34.0254 0.000915527 22.2701C0.000915527 10.5152 10.0738 0.986816 22.4999 0.986816C34.9266 0.986816 44.9995 10.5152 44.9995 22.2701Z" fill="#33739E"/>
            <path opacity="0.15" d="M44.3711 27.2587L34.8283 18.2299L28.2571 22.2104L23.8002 17.9941L19.1812 22.3629L22.6254 25.6212L21.9332 26.0408L13.6477 18.2014L10.8256 20.8705L18.4933 28.1239L15.7852 29.764L29.3098 42.5583C36.7625 40.3218 42.5288 34.5141 44.3711 27.2587Z" fill="black"/>
            <path d="M22.957 31.627C23.6333 31.627 23.9108 31.2016 23.9011 30.6683C23.8667 28.656 24.6955 27.5725 26.1897 28.9833C27.8432 30.5462 28.185 31.627 30.1935 31.627C30.9556 31.627 33.0073 31.627 33.7481 31.627C36.5448 31.627 34.053 28.9755 32.083 27.2477C30.2099 25.6056 30.1214 25.5659 31.7342 23.5894C33.7371 21.1355 36.3553 17.9728 34.0386 17.9728C33.5854 17.9728 33.9088 17.9728 29.616 17.9728C28.7571 17.9728 28.6946 18.4463 28.3904 19.1277C27.2857 21.5889 25.1839 24.7806 24.3866 24.2928C23.5502 23.7829 23.9327 22.0546 23.9966 19.0589C24.0137 18.2677 24.0089 17.7233 22.7297 17.4434C19.2334 16.6762 16.2047 18.1839 17.4419 18.4009C19.186 18.7087 19.0191 21.989 18.6133 23.5302C17.9047 26.2123 15.2392 21.407 14.1296 19.0127C13.8611 18.4372 13.7794 17.9728 12.8229 17.9728C12.2983 17.9728 9.98397 17.9728 9.20605 17.9728C8.50943 17.9728 8.16762 18.2742 8.41204 18.8867C8.65436 19.4979 11.4538 25.4114 14.7628 28.7852C17.8237 31.9076 20.851 31.627 22.957 31.627Z" fill="#F4F6F9"/>
        </g>
        <defs>
            <clipPath id="clip0">
                <rect width="45" height="42.5695" fill="white" transform="translate(0 0.984375)"/>
            </clipPath>
        </defs>
    </symbol>
</svg>